<svg width="40" height="36" viewBox="0 0 40 36" fill="none" xmlns="http://www.w3.org/2000/svg">
<path d="M2 2L8.32979 4.57092L12.4318 22.9346M32.5319 26.2401H13.1702L12.4318 22.9346M12.4318 22.9346L33.2766 20.3637L37 9.34548H9.81915M14.2872 31.7492C14.1631 30.8922 14.4362 29.2517 16.5213 29.5456C18.6064 29.8394 18.6312 31.6268 18.383 32.4837C18.2589 33.0959 17.6383 34.2467 16.1489 33.9528C14.6596 33.659 14.2872 32.3613 14.2872 31.7492ZM26.2021 31.7492C26.078 31.0146 26.2766 29.5456 28.0638 29.5456C30.2979 29.5456 30.2979 31.0146 30.2979 31.7492C30.2979 32.4837 30.2979 33.9528 28.4362 33.9528C26.5745 33.9528 26.2021 32.4941 26.2021 31.7492Z" stroke="#F1F1F1" stroke-width="3" stroke-linecap="round"/>
</svg>
