<svg width="395" height="227" viewBox="0 0 395 227" fill="none" xmlns="http://www.w3.org/2000/svg">
<path d="M176.364 118.126L192.008 133.347L175.941 149.414C171.995 153.078 160.974 160.322 148.459 159.984C135.944 159.646 128.023 157.024 125.627 155.756C119.426 153.078 105.755 143.325 100.682 125.737C95.6079 108.148 102.796 92.194 107.024 86.4157C111.815 79.228 126.811 65.1063 148.459 66.121C153.532 66.2619 166.047 68.4887 175.518 76.2684C184.989 84.048 216.953 116.999 231.751 132.502C236.966 137.152 250.862 143.664 264.73 132.502C267.972 130.528 274.201 123.115 273.186 109.247C272.2 103.046 266.675 90.0518 252.469 87.6841C248.523 86.9794 238.939 87.1768 232.174 93.6034C225.409 100.03 219.772 105.865 217.799 107.979L202.578 92.7578L217.799 77.5368C227.1 68.7988 252.384 56.5656 279.106 77.5368C284.884 82.0467 296.187 95.5483 295.172 113.475C293.904 135.884 284.179 145.186 274.878 151.951C265.576 158.715 237.671 169.286 214.839 146.031L162.411 93.6034C157.338 88.8116 143.723 82.1031 129.855 93.6034C112.52 107.979 124.782 126.582 125.627 127.851C126.473 129.119 138.734 146.031 161.143 133.347L176.364 118.126Z" fill="#FF7300"/>
<path fill-rule="evenodd" clip-rule="evenodd" d="M0 0H21.9859V73.5682C30.1601 67.9308 52.0051 60.0384 73.991 73.5682C101.473 90.4804 95.1313 123.036 94.7085 124.305C94.2857 125.573 91.326 142.486 73.5682 153.901C55.8104 165.317 33.4016 161.089 23.6771 154.747C13.9526 148.405 0.845611 137.835 0 113.312V0ZM38.4753 89.212C24.9455 94.6239 21.845 107.534 21.9859 113.312C21.704 115.708 22.4933 122.36 27.9052 129.801C34.6701 139.103 44.3946 138.68 49.0455 138.68C53.6963 138.68 62.9981 136.989 69.7629 124.305C76.5278 111.621 69.3401 100.628 67.6489 98.0909C66.6001 96.5176 53.6963 83.1236 38.4753 89.212Z" fill="#FF7300"/>
<path fill-rule="evenodd" clip-rule="evenodd" d="M394.133 227H372.147V153.432C363.973 159.069 342.128 166.962 320.142 153.432C292.66 136.52 299.002 103.964 299.425 102.695C299.848 101.427 302.807 84.5145 320.565 73.0987C338.323 61.683 360.732 65.911 370.456 72.2531C380.181 78.5952 393.288 89.1653 394.133 113.688V227ZM355.658 137.788C369.188 132.376 372.288 119.466 372.147 113.688C372.429 111.292 371.64 104.64 366.228 97.1987C359.463 87.8969 349.739 88.3197 345.088 88.3197C340.437 88.3197 331.135 90.011 324.37 102.695C317.605 115.379 324.793 126.372 326.484 128.909C327.533 130.482 340.437 143.876 355.658 137.788Z" fill="#FF7300"/>
</svg>
