<svg width="95" height="57" viewBox="0 0 95 57" fill="none" xmlns="http://www.w3.org/2000/svg">
<path d="M42.5099 29.6616L46.2806 33.4836L42.4079 37.518C41.4568 38.4381 38.8003 40.2571 35.7837 40.1721C32.7672 40.0872 30.858 39.429 30.2805 39.1105C28.7858 38.4381 25.4907 35.9892 24.2678 31.5726C23.0449 27.1561 24.7773 23.15 25.7965 21.6991C26.9514 19.8942 30.5659 16.3483 35.7837 16.6031C37.0067 16.6385 40.0232 17.1976 42.306 19.1511C44.5888 21.1046 52.2933 29.3785 55.8602 33.2713C57.1171 34.4391 60.4666 36.0741 63.8093 33.2713C64.5906 32.7759 66.0921 30.9144 65.8475 27.4321C65.6097 25.875 64.2781 22.6121 60.8538 22.0176C59.9027 21.8406 57.5927 21.8902 55.9621 23.5039C54.3315 25.1177 52.9727 26.5828 52.4971 27.1136L48.8283 23.2916L52.4971 19.4696C54.7392 17.2755 60.8335 14.2037 67.2742 19.4696C68.667 20.602 71.3914 23.9923 71.1469 28.4938C70.8411 34.1206 68.4972 36.4563 66.2551 38.155C64.0131 39.8537 57.287 42.5078 51.7838 36.6686L39.1468 23.5039C37.9239 22.3007 34.6423 20.6162 31.2996 23.5039C27.1213 27.1136 30.0767 31.785 30.2805 32.1035C30.4844 32.422 33.4398 36.6686 38.8411 33.4836L42.5099 29.6616Z" fill="#F1F1F1"/>
<path fill-rule="evenodd" clip-rule="evenodd" d="M0 0H5.29937V18.4731C7.26965 17.0575 12.5351 15.0757 17.8344 18.4731C24.4586 22.7197 22.93 30.8946 22.8281 31.2131C22.7262 31.5316 22.0128 35.7783 17.7325 38.6448C13.4523 41.5113 8.05097 40.4496 5.70702 38.8571C3.36306 37.2646 0.203822 34.6105 0 28.4528V0ZM9.2739 22.4012C6.01275 23.7602 5.2654 27.0018 5.29937 28.4528C5.23143 29.0544 5.42167 30.7247 6.72613 32.5933C8.3567 34.929 10.7007 34.8228 11.8217 34.8228C12.9427 34.8228 15.1847 34.3981 16.8153 31.2131C18.4459 28.0281 16.7134 25.2678 16.3058 24.6308C16.053 24.2357 12.9427 20.8724 9.2739 22.4012Z" fill="#F1F1F1"/>
<path fill-rule="evenodd" clip-rule="evenodd" d="M95 57H89.7006V38.5269C87.7303 39.9425 82.4649 41.9243 77.1656 38.5269C70.5414 34.2803 72.07 26.1054 72.1719 25.7869C72.2738 25.4684 72.9872 21.2217 77.2675 18.3552C81.5477 15.4887 86.949 16.5504 89.293 18.1429C91.6369 19.7354 94.7962 22.3895 95 28.5472V57ZM85.7261 34.5988C88.9872 33.2398 89.7346 29.9982 89.7006 28.5472C89.7686 27.9456 89.5783 26.2753 88.2739 24.4067C86.6433 22.071 84.2993 22.1772 83.1783 22.1772C82.0573 22.1772 79.8153 22.6019 78.1847 25.7869C76.5541 28.9719 78.2866 31.7322 78.6942 32.3692C78.947 32.7643 82.0573 36.1276 85.7261 34.5988Z" fill="#F1F1F1"/>
</svg>
