<svg width="660" height="599" viewBox="0 0 660 599" fill="none" xmlns="http://www.w3.org/2000/svg">
<path d="M295.235 251.744L321.422 277.224L294.527 304.12C287.921 310.254 269.471 322.381 248.521 321.814C227.571 321.248 214.312 316.86 210.301 314.737C199.92 310.254 177.035 293.928 168.542 264.484C160.048 235.041 172.081 208.334 179.159 198.661C187.18 186.628 212.283 162.989 248.521 164.687C257.014 164.923 277.965 168.651 293.819 181.674C309.673 194.697 363.181 249.857 387.954 275.809C396.683 283.594 419.945 294.494 443.161 275.809C448.587 272.506 459.015 260.096 457.316 236.881C455.665 226.5 446.416 204.748 422.635 200.784C416.029 199.604 399.986 199.935 388.662 210.693C377.337 221.451 367.9 231.219 364.597 234.758L339.117 209.277L364.597 183.797C380.168 169.17 422.493 148.691 467.225 183.797C476.898 191.347 495.82 213.949 494.121 243.959C491.997 281.471 475.719 297.042 460.147 308.367C444.576 319.691 397.863 337.386 359.643 298.458L271.878 210.693C263.384 202.672 240.594 191.441 217.379 210.693C188.36 234.758 208.885 265.9 210.301 268.023C211.716 270.147 232.242 298.458 269.754 277.224L295.235 251.744Z" fill="#FF7300"/>
<path fill-rule="evenodd" clip-rule="evenodd" d="M0 54H36.8046V177.154C50.4883 167.717 87.057 154.505 123.862 177.154C169.867 205.465 159.251 259.964 158.543 262.087C157.835 264.211 152.881 292.522 123.154 311.632C93.427 330.742 55.9147 323.664 39.6357 313.048C23.3568 302.431 1.41556 284.736 0 243.685V54ZM64.408 203.342C41.759 212.401 36.5687 234.012 36.8046 243.685C36.3327 247.696 37.6539 258.832 46.7135 271.289C58.038 286.86 74.3169 286.152 82.1025 286.152C89.8881 286.152 105.459 283.321 116.784 262.087C128.108 240.854 116.076 222.452 113.245 218.205C111.489 215.571 89.8881 193.15 64.408 203.342Z" fill="#FF7300"/>
<path fill-rule="evenodd" clip-rule="evenodd" d="M659.782 434H622.978V310.846C609.294 320.283 572.725 333.495 535.921 310.846C489.915 282.535 500.532 228.036 501.24 225.913C501.947 223.789 506.902 195.478 536.629 176.368C566.355 157.258 603.868 164.336 620.147 174.952C636.426 185.569 658.367 203.264 659.782 244.315V434ZM595.374 284.658C618.023 275.599 623.214 253.988 622.978 244.315C623.45 240.304 622.129 229.168 613.069 216.711C601.744 201.14 585.466 201.848 577.68 201.848C569.894 201.848 554.323 204.679 542.999 225.913C531.674 247.146 543.706 265.548 546.538 269.795C548.293 272.429 569.894 294.85 595.374 284.658Z" fill="#FF7300"/>
<rect width="37" height="122" fill="#FF7300"/>
<rect x="623" y="244" width="37" height="355" fill="#FF7300"/>
<path d="M180.219 399.258C180.479 399.258 180.732 399.232 180.977 399.18C181.227 399.128 181.474 399.062 181.719 398.984V400.758C181.464 400.872 181.146 400.966 180.766 401.039C180.391 401.117 179.979 401.156 179.531 401.156C179.01 401.156 178.542 401.073 178.125 400.906C177.714 400.734 177.388 400.44 177.148 400.023C176.914 399.602 176.797 399.016 176.797 398.266V394.055H175.656V393.047L176.969 392.25L177.656 390.406H179.18V392.266H181.625V394.055H179.18V398.266C179.18 398.599 179.273 398.849 179.461 399.016C179.654 399.177 179.906 399.258 180.219 399.258ZM185.875 388.844V391.32C185.875 391.753 185.859 392.164 185.828 392.555C185.802 392.945 185.781 393.221 185.766 393.383H185.891C186.078 393.081 186.299 392.836 186.555 392.648C186.815 392.461 187.102 392.323 187.414 392.234C187.727 392.146 188.062 392.102 188.422 392.102C189.052 392.102 189.602 392.214 190.07 392.438C190.539 392.656 190.904 393.003 191.164 393.477C191.424 393.945 191.555 394.555 191.555 395.305V401H189.172V395.898C189.172 395.273 189.057 394.802 188.828 394.484C188.599 394.167 188.245 394.008 187.766 394.008C187.286 394.008 186.909 394.12 186.633 394.344C186.357 394.562 186.161 394.888 186.047 395.32C185.932 395.747 185.875 396.271 185.875 396.891V401H183.492V388.844H185.875ZM197.609 392.102C198.417 392.102 199.112 392.258 199.695 392.57C200.279 392.878 200.729 393.326 201.047 393.914C201.365 394.503 201.523 395.221 201.523 396.07V397.227H195.891C195.917 397.898 196.117 398.427 196.492 398.812C196.872 399.193 197.398 399.383 198.07 399.383C198.628 399.383 199.138 399.326 199.602 399.211C200.065 399.096 200.542 398.924 201.031 398.695V400.539C200.599 400.753 200.146 400.909 199.672 401.008C199.203 401.107 198.633 401.156 197.961 401.156C197.086 401.156 196.31 400.995 195.633 400.672C194.961 400.349 194.432 399.857 194.047 399.195C193.667 398.534 193.477 397.701 193.477 396.695C193.477 395.674 193.648 394.826 193.992 394.148C194.341 393.466 194.826 392.956 195.445 392.617C196.065 392.273 196.786 392.102 197.609 392.102ZM197.625 393.797C197.161 393.797 196.776 393.945 196.469 394.242C196.167 394.539 195.992 395.005 195.945 395.641H199.289C199.284 395.286 199.219 394.971 199.094 394.695C198.974 394.419 198.792 394.201 198.547 394.039C198.307 393.878 198 393.797 197.625 393.797ZM214.797 401L214.125 397.945C214.089 397.763 214.029 397.495 213.945 397.141C213.862 396.781 213.771 396.398 213.672 395.992C213.578 395.581 213.49 395.201 213.406 394.852C213.328 394.503 213.271 394.247 213.234 394.086H213.164C213.128 394.247 213.07 394.503 212.992 394.852C212.914 395.201 212.826 395.581 212.727 395.992C212.633 396.404 212.544 396.792 212.461 397.156C212.378 397.516 212.315 397.789 212.273 397.977L211.57 401H209.008L206.523 392.266H208.898L209.906 396.133C209.974 396.404 210.039 396.727 210.102 397.102C210.164 397.471 210.219 397.831 210.266 398.18C210.318 398.523 210.357 398.797 210.383 399H210.445C210.456 398.849 210.477 398.648 210.508 398.398C210.544 398.148 210.583 397.891 210.625 397.625C210.672 397.354 210.714 397.112 210.75 396.898C210.792 396.68 210.823 396.531 210.844 396.453L211.922 392.266H214.547L215.57 396.453C215.607 396.604 215.654 396.844 215.711 397.172C215.773 397.5 215.828 397.839 215.875 398.188C215.922 398.531 215.948 398.802 215.953 399H216.016C216.036 398.823 216.073 398.56 216.125 398.211C216.177 397.862 216.237 397.497 216.305 397.117C216.378 396.732 216.451 396.404 216.523 396.133L217.57 392.266H219.906L217.391 401H214.797ZM224.922 392.102C225.729 392.102 226.424 392.258 227.008 392.57C227.591 392.878 228.042 393.326 228.359 393.914C228.677 394.503 228.836 395.221 228.836 396.07V397.227H223.203C223.229 397.898 223.43 398.427 223.805 398.812C224.185 399.193 224.711 399.383 225.383 399.383C225.94 399.383 226.451 399.326 226.914 399.211C227.378 399.096 227.854 398.924 228.344 398.695V400.539C227.911 400.753 227.458 400.909 226.984 401.008C226.516 401.107 225.945 401.156 225.273 401.156C224.398 401.156 223.622 400.995 222.945 400.672C222.273 400.349 221.745 399.857 221.359 399.195C220.979 398.534 220.789 397.701 220.789 396.695C220.789 395.674 220.961 394.826 221.305 394.148C221.654 393.466 222.138 392.956 222.758 392.617C223.378 392.273 224.099 392.102 224.922 392.102ZM224.938 393.797C224.474 393.797 224.089 393.945 223.781 394.242C223.479 394.539 223.305 395.005 223.258 395.641H226.602C226.596 395.286 226.531 394.971 226.406 394.695C226.286 394.419 226.104 394.201 225.859 394.039C225.62 393.878 225.312 393.797 224.938 393.797ZM233.156 401H230.773V388.844H233.156V401ZM238.047 401H235.664V388.844H238.047V401ZM246.648 398.406C246.648 399 246.508 399.503 246.227 399.914C245.951 400.32 245.536 400.63 244.984 400.844C244.432 401.052 243.745 401.156 242.922 401.156C242.312 401.156 241.789 401.117 241.352 401.039C240.919 400.961 240.482 400.831 240.039 400.648V398.68C240.513 398.893 241.021 399.07 241.562 399.211C242.109 399.346 242.589 399.414 243 399.414C243.464 399.414 243.794 399.346 243.992 399.211C244.195 399.07 244.297 398.888 244.297 398.664C244.297 398.518 244.255 398.388 244.172 398.273C244.094 398.154 243.922 398.021 243.656 397.875C243.391 397.724 242.974 397.529 242.406 397.289C241.859 397.06 241.409 396.828 241.055 396.594C240.706 396.359 240.445 396.083 240.273 395.766C240.107 395.443 240.023 395.034 240.023 394.539C240.023 393.732 240.336 393.125 240.961 392.719C241.591 392.307 242.432 392.102 243.484 392.102C244.026 392.102 244.542 392.156 245.031 392.266C245.526 392.375 246.034 392.549 246.555 392.789L245.836 394.508C245.404 394.32 244.995 394.167 244.609 394.047C244.229 393.927 243.841 393.867 243.445 393.867C243.096 393.867 242.833 393.914 242.656 394.008C242.479 394.102 242.391 394.245 242.391 394.438C242.391 394.578 242.435 394.703 242.523 394.812C242.617 394.922 242.794 395.044 243.055 395.18C243.32 395.31 243.708 395.479 244.219 395.688C244.714 395.891 245.143 396.104 245.508 396.328C245.872 396.547 246.154 396.82 246.352 397.148C246.549 397.471 246.648 397.891 246.648 398.406ZM253.367 392.102C254.352 392.102 255.146 392.484 255.75 393.25C256.359 394.016 256.664 395.138 256.664 396.617C256.664 397.607 256.521 398.44 256.234 399.117C255.948 399.789 255.552 400.297 255.047 400.641C254.542 400.984 253.961 401.156 253.305 401.156C252.883 401.156 252.521 401.104 252.219 401C251.917 400.891 251.659 400.753 251.445 400.586C251.232 400.414 251.047 400.232 250.891 400.039H250.766C250.807 400.247 250.839 400.461 250.859 400.68C250.88 400.898 250.891 401.112 250.891 401.32V404.844H248.508V392.266H250.445L250.781 393.398H250.891C251.047 393.164 251.237 392.948 251.461 392.75C251.685 392.552 251.953 392.396 252.266 392.281C252.583 392.161 252.951 392.102 253.367 392.102ZM252.602 394.008C252.185 394.008 251.854 394.094 251.609 394.266C251.365 394.438 251.185 394.695 251.07 395.039C250.961 395.383 250.901 395.818 250.891 396.344V396.602C250.891 397.164 250.943 397.641 251.047 398.031C251.156 398.422 251.336 398.719 251.586 398.922C251.841 399.125 252.19 399.227 252.633 399.227C252.997 399.227 253.297 399.125 253.531 398.922C253.766 398.719 253.94 398.422 254.055 398.031C254.174 397.635 254.234 397.154 254.234 396.586C254.234 395.732 254.102 395.089 253.836 394.656C253.57 394.224 253.159 394.008 252.602 394.008ZM263.508 392.102C263.628 392.102 263.766 392.109 263.922 392.125C264.083 392.135 264.214 392.151 264.312 392.172L264.133 394.406C264.055 394.38 263.943 394.362 263.797 394.352C263.656 394.336 263.534 394.328 263.43 394.328C263.122 394.328 262.823 394.367 262.531 394.445C262.245 394.523 261.987 394.651 261.758 394.828C261.529 395 261.346 395.229 261.211 395.516C261.081 395.797 261.016 396.143 261.016 396.555V401H258.633V392.266H260.438L260.789 393.734H260.906C261.078 393.438 261.292 393.167 261.547 392.922C261.807 392.672 262.102 392.474 262.43 392.328C262.763 392.177 263.122 392.102 263.508 392.102ZM268.281 392.266V401H265.898V392.266H268.281ZM267.094 388.844C267.448 388.844 267.753 388.927 268.008 389.094C268.263 389.255 268.391 389.56 268.391 390.008C268.391 390.451 268.263 390.758 268.008 390.93C267.753 391.096 267.448 391.18 267.094 391.18C266.734 391.18 266.427 391.096 266.172 390.93C265.922 390.758 265.797 390.451 265.797 390.008C265.797 389.56 265.922 389.255 266.172 389.094C266.427 388.927 266.734 388.844 267.094 388.844ZM275.75 392.102C276.682 392.102 277.432 392.357 278 392.867C278.568 393.372 278.852 394.185 278.852 395.305V401H276.469V395.898C276.469 395.273 276.354 394.802 276.125 394.484C275.901 394.167 275.547 394.008 275.062 394.008C274.333 394.008 273.836 394.255 273.57 394.75C273.305 395.245 273.172 395.958 273.172 396.891V401H270.789V392.266H272.609L272.93 393.383H273.062C273.25 393.081 273.482 392.836 273.758 392.648C274.039 392.461 274.349 392.323 274.688 392.234C275.031 392.146 275.385 392.102 275.75 392.102ZM283.859 404.844C282.641 404.844 281.708 404.63 281.062 404.203C280.422 403.781 280.102 403.188 280.102 402.422C280.102 401.896 280.266 401.456 280.594 401.102C280.922 400.747 281.404 400.495 282.039 400.344C281.794 400.24 281.581 400.07 281.398 399.836C281.216 399.596 281.125 399.344 281.125 399.078C281.125 398.745 281.221 398.469 281.414 398.25C281.607 398.026 281.885 397.807 282.25 397.594C281.792 397.396 281.427 397.078 281.156 396.641C280.891 396.203 280.758 395.688 280.758 395.094C280.758 394.458 280.896 393.919 281.172 393.477C281.453 393.029 281.859 392.688 282.391 392.453C282.927 392.219 283.578 392.102 284.344 392.102C284.505 392.102 284.693 392.112 284.906 392.133C285.12 392.154 285.315 392.177 285.492 392.203C285.674 392.229 285.797 392.25 285.859 392.266H288.906V393.477L287.539 393.828C287.664 394.021 287.758 394.227 287.82 394.445C287.883 394.664 287.914 394.896 287.914 395.141C287.914 396.078 287.586 396.81 286.93 397.336C286.279 397.857 285.372 398.117 284.211 398.117C283.935 398.102 283.674 398.081 283.43 398.055C283.31 398.148 283.219 398.247 283.156 398.352C283.094 398.456 283.062 398.565 283.062 398.68C283.062 398.794 283.109 398.891 283.203 398.969C283.302 399.042 283.448 399.099 283.641 399.141C283.839 399.177 284.083 399.195 284.375 399.195H285.859C286.818 399.195 287.547 399.401 288.047 399.812C288.552 400.224 288.805 400.828 288.805 401.625C288.805 402.646 288.378 403.438 287.523 404C286.674 404.562 285.453 404.844 283.859 404.844ZM283.961 403.289C284.529 403.289 285.016 403.234 285.422 403.125C285.833 403.021 286.148 402.87 286.367 402.672C286.586 402.479 286.695 402.247 286.695 401.977C286.695 401.758 286.63 401.583 286.5 401.453C286.375 401.328 286.182 401.24 285.922 401.188C285.667 401.135 285.339 401.109 284.938 401.109H283.703C283.411 401.109 283.148 401.156 282.914 401.25C282.685 401.344 282.503 401.474 282.367 401.641C282.232 401.812 282.164 402.01 282.164 402.234C282.164 402.562 282.32 402.82 282.633 403.008C282.951 403.195 283.393 403.289 283.961 403.289ZM284.344 396.664C284.792 396.664 285.12 396.526 285.328 396.25C285.536 395.974 285.641 395.599 285.641 395.125C285.641 394.599 285.531 394.206 285.312 393.945C285.099 393.68 284.776 393.547 284.344 393.547C283.906 393.547 283.578 393.68 283.359 393.945C283.141 394.206 283.031 394.599 283.031 395.125C283.031 395.599 283.138 395.974 283.352 396.25C283.57 396.526 283.901 396.664 284.344 396.664ZM302.445 396.617C302.445 397.346 302.346 397.992 302.148 398.555C301.956 399.117 301.672 399.594 301.297 399.984C300.927 400.37 300.479 400.661 299.953 400.859C299.432 401.057 298.844 401.156 298.188 401.156C297.573 401.156 297.008 401.057 296.492 400.859C295.982 400.661 295.536 400.37 295.156 399.984C294.781 399.594 294.49 399.117 294.281 398.555C294.078 397.992 293.977 397.346 293.977 396.617C293.977 395.648 294.148 394.828 294.492 394.156C294.836 393.484 295.326 392.974 295.961 392.625C296.596 392.276 297.354 392.102 298.234 392.102C299.052 392.102 299.776 392.276 300.406 392.625C301.042 392.974 301.539 393.484 301.898 394.156C302.263 394.828 302.445 395.648 302.445 396.617ZM296.406 396.617C296.406 397.19 296.469 397.672 296.594 398.062C296.719 398.453 296.914 398.747 297.18 398.945C297.445 399.143 297.792 399.242 298.219 399.242C298.641 399.242 298.982 399.143 299.242 398.945C299.508 398.747 299.701 398.453 299.82 398.062C299.945 397.672 300.008 397.19 300.008 396.617C300.008 396.039 299.945 395.56 299.82 395.18C299.701 394.794 299.508 394.505 299.242 394.312C298.977 394.12 298.63 394.023 298.203 394.023C297.573 394.023 297.115 394.24 296.828 394.672C296.547 395.104 296.406 395.753 296.406 396.617ZM309.242 394.055H307.18V401H304.797V394.055H303.484V392.906L304.797 392.266V391.625C304.797 390.88 304.922 390.302 305.172 389.891C305.427 389.474 305.784 389.182 306.242 389.016C306.706 388.844 307.253 388.758 307.883 388.758C308.346 388.758 308.768 388.797 309.148 388.875C309.529 388.948 309.839 389.031 310.078 389.125L309.469 390.875C309.286 390.818 309.089 390.766 308.875 390.719C308.661 390.672 308.417 390.648 308.141 390.648C307.807 390.648 307.562 390.75 307.406 390.953C307.255 391.151 307.18 391.406 307.18 391.719V392.266H309.242V394.055ZM317.156 392.266V401H314.773V392.266H317.156ZM315.969 388.844C316.323 388.844 316.628 388.927 316.883 389.094C317.138 389.255 317.266 389.56 317.266 390.008C317.266 390.451 317.138 390.758 316.883 390.93C316.628 391.096 316.323 391.18 315.969 391.18C315.609 391.18 315.302 391.096 315.047 390.93C314.797 390.758 314.672 390.451 314.672 390.008C314.672 389.56 314.797 389.255 315.047 389.094C315.302 388.927 315.609 388.844 315.969 388.844ZM324.625 392.102C325.557 392.102 326.307 392.357 326.875 392.867C327.443 393.372 327.727 394.185 327.727 395.305V401H325.344V395.898C325.344 395.273 325.229 394.802 325 394.484C324.776 394.167 324.422 394.008 323.938 394.008C323.208 394.008 322.711 394.255 322.445 394.75C322.18 395.245 322.047 395.958 322.047 396.891V401H319.664V392.266H321.484L321.805 393.383H321.938C322.125 393.081 322.357 392.836 322.633 392.648C322.914 392.461 323.224 392.323 323.562 392.234C323.906 392.146 324.26 392.102 324.625 392.102ZM335.008 394.055H332.945V401H330.562V394.055H329.25V392.906L330.562 392.266V391.625C330.562 390.88 330.688 390.302 330.938 389.891C331.193 389.474 331.549 389.182 332.008 389.016C332.471 388.844 333.018 388.758 333.648 388.758C334.112 388.758 334.534 388.797 334.914 388.875C335.294 388.948 335.604 389.031 335.844 389.125L335.234 390.875C335.052 390.818 334.854 390.766 334.641 390.719C334.427 390.672 334.182 390.648 333.906 390.648C333.573 390.648 333.328 390.75 333.172 390.953C333.021 391.151 332.945 391.406 332.945 391.719V392.266H335.008V394.055ZM338.758 392.266V401H336.375V392.266H338.758ZM337.57 388.844C337.924 388.844 338.229 388.927 338.484 389.094C338.74 389.255 338.867 389.56 338.867 390.008C338.867 390.451 338.74 390.758 338.484 390.93C338.229 391.096 337.924 391.18 337.57 391.18C337.211 391.18 336.904 391.096 336.648 390.93C336.398 390.758 336.273 390.451 336.273 390.008C336.273 389.56 336.398 389.255 336.648 389.094C336.904 388.927 337.211 388.844 337.57 388.844ZM346.219 392.102C347.151 392.102 347.901 392.357 348.469 392.867C349.036 393.372 349.32 394.185 349.32 395.305V401H346.938V395.898C346.938 395.273 346.823 394.802 346.594 394.484C346.37 394.167 346.016 394.008 345.531 394.008C344.802 394.008 344.305 394.255 344.039 394.75C343.773 395.245 343.641 395.958 343.641 396.891V401H341.258V392.266H343.078L343.398 393.383H343.531C343.719 393.081 343.951 392.836 344.227 392.648C344.508 392.461 344.818 392.323 345.156 392.234C345.5 392.146 345.854 392.102 346.219 392.102ZM354.156 392.266V401H351.773V392.266H354.156ZM352.969 388.844C353.323 388.844 353.628 388.927 353.883 389.094C354.138 389.255 354.266 389.56 354.266 390.008C354.266 390.451 354.138 390.758 353.883 390.93C353.628 391.096 353.323 391.18 352.969 391.18C352.609 391.18 352.302 391.096 352.047 390.93C351.797 390.758 351.672 390.451 351.672 390.008C351.672 389.56 351.797 389.255 352.047 389.094C352.302 388.927 352.609 388.844 352.969 388.844ZM360.344 399.258C360.604 399.258 360.857 399.232 361.102 399.18C361.352 399.128 361.599 399.062 361.844 398.984V400.758C361.589 400.872 361.271 400.966 360.891 401.039C360.516 401.117 360.104 401.156 359.656 401.156C359.135 401.156 358.667 401.073 358.25 400.906C357.839 400.734 357.513 400.44 357.273 400.023C357.039 399.602 356.922 399.016 356.922 398.266V394.055H355.781V393.047L357.094 392.25L357.781 390.406H359.305V392.266H361.75V394.055H359.305V398.266C359.305 398.599 359.398 398.849 359.586 399.016C359.779 399.177 360.031 399.258 360.344 399.258ZM367.219 392.102C368.026 392.102 368.721 392.258 369.305 392.57C369.888 392.878 370.339 393.326 370.656 393.914C370.974 394.503 371.133 395.221 371.133 396.07V397.227H365.5C365.526 397.898 365.727 398.427 366.102 398.812C366.482 399.193 367.008 399.383 367.68 399.383C368.237 399.383 368.747 399.326 369.211 399.211C369.674 399.096 370.151 398.924 370.641 398.695V400.539C370.208 400.753 369.755 400.909 369.281 401.008C368.812 401.107 368.242 401.156 367.57 401.156C366.695 401.156 365.919 400.995 365.242 400.672C364.57 400.349 364.042 399.857 363.656 399.195C363.276 398.534 363.086 397.701 363.086 396.695C363.086 395.674 363.258 394.826 363.602 394.148C363.951 393.466 364.435 392.956 365.055 392.617C365.674 392.273 366.396 392.102 367.219 392.102ZM367.234 393.797C366.771 393.797 366.385 393.945 366.078 394.242C365.776 394.539 365.602 395.005 365.555 395.641H368.898C368.893 395.286 368.828 394.971 368.703 394.695C368.583 394.419 368.401 394.201 368.156 394.039C367.917 393.878 367.609 393.797 367.234 393.797ZM379.609 388.844V394.281C379.609 394.609 379.596 394.938 379.57 395.266C379.544 395.594 379.516 395.922 379.484 396.25H379.516C379.677 396.021 379.841 395.794 380.008 395.57C380.18 395.346 380.362 395.13 380.555 394.922L383 392.266H385.688L382.219 396.055L385.898 401H383.148L380.633 397.461L379.609 398.281V401H377.227V388.844H379.609ZM392.109 392.102C393.042 392.102 393.792 392.357 394.359 392.867C394.927 393.372 395.211 394.185 395.211 395.305V401H392.828V395.898C392.828 395.273 392.714 394.802 392.484 394.484C392.26 394.167 391.906 394.008 391.422 394.008C390.693 394.008 390.195 394.255 389.93 394.75C389.664 395.245 389.531 395.958 389.531 396.891V401H387.148V392.266H388.969L389.289 393.383H389.422C389.609 393.081 389.841 392.836 390.117 392.648C390.398 392.461 390.708 392.323 391.047 392.234C391.391 392.146 391.745 392.102 392.109 392.102ZM405.602 396.617C405.602 397.346 405.503 397.992 405.305 398.555C405.112 399.117 404.828 399.594 404.453 399.984C404.083 400.37 403.635 400.661 403.109 400.859C402.589 401.057 402 401.156 401.344 401.156C400.729 401.156 400.164 401.057 399.648 400.859C399.138 400.661 398.693 400.37 398.312 399.984C397.938 399.594 397.646 399.117 397.438 398.555C397.234 397.992 397.133 397.346 397.133 396.617C397.133 395.648 397.305 394.828 397.648 394.156C397.992 393.484 398.482 392.974 399.117 392.625C399.753 392.276 400.51 392.102 401.391 392.102C402.208 392.102 402.932 392.276 403.562 392.625C404.198 392.974 404.695 393.484 405.055 394.156C405.419 394.828 405.602 395.648 405.602 396.617ZM399.562 396.617C399.562 397.19 399.625 397.672 399.75 398.062C399.875 398.453 400.07 398.747 400.336 398.945C400.602 399.143 400.948 399.242 401.375 399.242C401.797 399.242 402.138 399.143 402.398 398.945C402.664 398.747 402.857 398.453 402.977 398.062C403.102 397.672 403.164 397.19 403.164 396.617C403.164 396.039 403.102 395.56 402.977 395.18C402.857 394.794 402.664 394.505 402.398 394.312C402.133 394.12 401.786 394.023 401.359 394.023C400.729 394.023 400.271 394.24 399.984 394.672C399.703 395.104 399.562 395.753 399.562 396.617ZM414.75 401L414.078 397.945C414.042 397.763 413.982 397.495 413.898 397.141C413.815 396.781 413.724 396.398 413.625 395.992C413.531 395.581 413.443 395.201 413.359 394.852C413.281 394.503 413.224 394.247 413.188 394.086H413.117C413.081 394.247 413.023 394.503 412.945 394.852C412.867 395.201 412.779 395.581 412.68 395.992C412.586 396.404 412.497 396.792 412.414 397.156C412.331 397.516 412.268 397.789 412.227 397.977L411.523 401H408.961L406.477 392.266H408.852L409.859 396.133C409.927 396.404 409.992 396.727 410.055 397.102C410.117 397.471 410.172 397.831 410.219 398.18C410.271 398.523 410.31 398.797 410.336 399H410.398C410.409 398.849 410.43 398.648 410.461 398.398C410.497 398.148 410.536 397.891 410.578 397.625C410.625 397.354 410.667 397.112 410.703 396.898C410.745 396.68 410.776 396.531 410.797 396.453L411.875 392.266H414.5L415.523 396.453C415.56 396.604 415.607 396.844 415.664 397.172C415.727 397.5 415.781 397.839 415.828 398.188C415.875 398.531 415.901 398.802 415.906 399H415.969C415.99 398.823 416.026 398.56 416.078 398.211C416.13 397.862 416.19 397.497 416.258 397.117C416.331 396.732 416.404 396.404 416.477 396.133L417.523 392.266H419.859L417.344 401H414.75ZM423.656 401H421.273V388.844H423.656V401ZM429.766 392.102C430.573 392.102 431.268 392.258 431.852 392.57C432.435 392.878 432.885 393.326 433.203 393.914C433.521 394.503 433.68 395.221 433.68 396.07V397.227H428.047C428.073 397.898 428.273 398.427 428.648 398.812C429.029 399.193 429.555 399.383 430.227 399.383C430.784 399.383 431.294 399.326 431.758 399.211C432.221 399.096 432.698 398.924 433.188 398.695V400.539C432.755 400.753 432.302 400.909 431.828 401.008C431.359 401.107 430.789 401.156 430.117 401.156C429.242 401.156 428.466 400.995 427.789 400.672C427.117 400.349 426.589 399.857 426.203 399.195C425.823 398.534 425.633 397.701 425.633 396.695C425.633 395.674 425.805 394.826 426.148 394.148C426.497 393.466 426.982 392.956 427.602 392.617C428.221 392.273 428.943 392.102 429.766 392.102ZM429.781 393.797C429.318 393.797 428.932 393.945 428.625 394.242C428.323 394.539 428.148 395.005 428.102 395.641H431.445C431.44 395.286 431.375 394.971 431.25 394.695C431.13 394.419 430.948 394.201 430.703 394.039C430.464 393.878 430.156 393.797 429.781 393.797ZM438.383 401.156C437.409 401.156 436.615 400.776 436 400.016C435.391 399.25 435.086 398.128 435.086 396.648C435.086 395.154 435.396 394.023 436.016 393.258C436.635 392.487 437.445 392.102 438.445 392.102C438.862 392.102 439.229 392.159 439.547 392.273C439.865 392.388 440.138 392.542 440.367 392.734C440.602 392.927 440.799 393.143 440.961 393.383H441.039C441.008 393.216 440.969 392.971 440.922 392.648C440.88 392.32 440.859 391.984 440.859 391.641V388.844H443.25V401H441.422L440.961 399.867H440.859C440.708 400.107 440.518 400.326 440.289 400.523C440.065 400.716 439.797 400.87 439.484 400.984C439.172 401.099 438.805 401.156 438.383 401.156ZM439.219 399.258C439.87 399.258 440.328 399.065 440.594 398.68C440.865 398.289 441.008 397.703 441.023 396.922V396.664C441.023 395.815 440.893 395.167 440.633 394.719C440.372 394.266 439.888 394.039 439.18 394.039C438.654 394.039 438.242 394.266 437.945 394.719C437.648 395.172 437.5 395.826 437.5 396.68C437.5 397.534 437.648 398.177 437.945 398.609C438.247 399.042 438.672 399.258 439.219 399.258ZM448.297 404.844C447.078 404.844 446.146 404.63 445.5 404.203C444.859 403.781 444.539 403.188 444.539 402.422C444.539 401.896 444.703 401.456 445.031 401.102C445.359 400.747 445.841 400.495 446.477 400.344C446.232 400.24 446.018 400.07 445.836 399.836C445.654 399.596 445.562 399.344 445.562 399.078C445.562 398.745 445.659 398.469 445.852 398.25C446.044 398.026 446.323 397.807 446.688 397.594C446.229 397.396 445.865 397.078 445.594 396.641C445.328 396.203 445.195 395.688 445.195 395.094C445.195 394.458 445.333 393.919 445.609 393.477C445.891 393.029 446.297 392.688 446.828 392.453C447.365 392.219 448.016 392.102 448.781 392.102C448.943 392.102 449.13 392.112 449.344 392.133C449.557 392.154 449.753 392.177 449.93 392.203C450.112 392.229 450.234 392.25 450.297 392.266H453.344V393.477L451.977 393.828C452.102 394.021 452.195 394.227 452.258 394.445C452.32 394.664 452.352 394.896 452.352 395.141C452.352 396.078 452.023 396.81 451.367 397.336C450.716 397.857 449.81 398.117 448.648 398.117C448.372 398.102 448.112 398.081 447.867 398.055C447.747 398.148 447.656 398.247 447.594 398.352C447.531 398.456 447.5 398.565 447.5 398.68C447.5 398.794 447.547 398.891 447.641 398.969C447.74 399.042 447.885 399.099 448.078 399.141C448.276 399.177 448.521 399.195 448.812 399.195H450.297C451.255 399.195 451.984 399.401 452.484 399.812C452.99 400.224 453.242 400.828 453.242 401.625C453.242 402.646 452.815 403.438 451.961 404C451.112 404.562 449.891 404.844 448.297 404.844ZM448.398 403.289C448.966 403.289 449.453 403.234 449.859 403.125C450.271 403.021 450.586 402.87 450.805 402.672C451.023 402.479 451.133 402.247 451.133 401.977C451.133 401.758 451.068 401.583 450.938 401.453C450.812 401.328 450.62 401.24 450.359 401.188C450.104 401.135 449.776 401.109 449.375 401.109H448.141C447.849 401.109 447.586 401.156 447.352 401.25C447.122 401.344 446.94 401.474 446.805 401.641C446.669 401.812 446.602 402.01 446.602 402.234C446.602 402.562 446.758 402.82 447.07 403.008C447.388 403.195 447.831 403.289 448.398 403.289ZM448.781 396.664C449.229 396.664 449.557 396.526 449.766 396.25C449.974 395.974 450.078 395.599 450.078 395.125C450.078 394.599 449.969 394.206 449.75 393.945C449.536 393.68 449.214 393.547 448.781 393.547C448.344 393.547 448.016 393.68 447.797 393.945C447.578 394.206 447.469 394.599 447.469 395.125C447.469 395.599 447.576 395.974 447.789 396.25C448.008 396.526 448.339 396.664 448.781 396.664ZM458.391 392.102C459.198 392.102 459.893 392.258 460.477 392.57C461.06 392.878 461.51 393.326 461.828 393.914C462.146 394.503 462.305 395.221 462.305 396.07V397.227H456.672C456.698 397.898 456.898 398.427 457.273 398.812C457.654 399.193 458.18 399.383 458.852 399.383C459.409 399.383 459.919 399.326 460.383 399.211C460.846 399.096 461.323 398.924 461.812 398.695V400.539C461.38 400.753 460.927 400.909 460.453 401.008C459.984 401.107 459.414 401.156 458.742 401.156C457.867 401.156 457.091 400.995 456.414 400.672C455.742 400.349 455.214 399.857 454.828 399.195C454.448 398.534 454.258 397.701 454.258 396.695C454.258 395.674 454.43 394.826 454.773 394.148C455.122 393.466 455.607 392.956 456.227 392.617C456.846 392.273 457.568 392.102 458.391 392.102ZM458.406 393.797C457.943 393.797 457.557 393.945 457.25 394.242C456.948 394.539 456.773 395.005 456.727 395.641H460.07C460.065 395.286 460 394.971 459.875 394.695C459.755 394.419 459.573 394.201 459.328 394.039C459.089 393.878 458.781 393.797 458.406 393.797ZM466.461 399.141L466.578 399.32C466.484 399.695 466.362 400.099 466.211 400.531C466.065 400.964 465.904 401.396 465.727 401.828C465.555 402.26 465.38 402.672 465.203 403.062H463.484C463.589 402.641 463.69 402.198 463.789 401.734C463.888 401.271 463.979 400.815 464.062 400.367C464.151 399.919 464.221 399.51 464.273 399.141H466.461ZM90.9062 423L90.2344 419.945C90.1979 419.763 90.138 419.495 90.0547 419.141C89.9714 418.781 89.8802 418.398 89.7812 417.992C89.6875 417.581 89.599 417.201 89.5156 416.852C89.4375 416.503 89.3802 416.247 89.3438 416.086H89.2734C89.237 416.247 89.1797 416.503 89.1016 416.852C89.0234 417.201 88.9349 417.581 88.8359 417.992C88.7422 418.404 88.6536 418.792 88.5703 419.156C88.487 419.516 88.4245 419.789 88.3828 419.977L87.6797 423H85.1172L82.6328 414.266H85.0078L86.0156 418.133C86.0833 418.404 86.1484 418.727 86.2109 419.102C86.2734 419.471 86.3281 419.831 86.375 420.18C86.4271 420.523 86.4661 420.797 86.4922 421H86.5547C86.5651 420.849 86.5859 420.648 86.6172 420.398C86.6536 420.148 86.6927 419.891 86.7344 419.625C86.7812 419.354 86.8229 419.112 86.8594 418.898C86.901 418.68 86.9323 418.531 86.9531 418.453L88.0312 414.266H90.6562L91.6797 418.453C91.7161 418.604 91.763 418.844 91.8203 419.172C91.8828 419.5 91.9375 419.839 91.9844 420.188C92.0312 420.531 92.0573 420.802 92.0625 421H92.125C92.1458 420.823 92.1823 420.56 92.2344 420.211C92.2865 419.862 92.3464 419.497 92.4141 419.117C92.487 418.732 92.5599 418.404 92.6328 418.133L93.6797 414.266H96.0156L93.5 423H90.9062ZM99.8125 410.844V413.32C99.8125 413.753 99.7969 414.164 99.7656 414.555C99.7396 414.945 99.7188 415.221 99.7031 415.383H99.8281C100.016 415.081 100.237 414.836 100.492 414.648C100.753 414.461 101.039 414.323 101.352 414.234C101.664 414.146 102 414.102 102.359 414.102C102.99 414.102 103.539 414.214 104.008 414.438C104.477 414.656 104.841 415.003 105.102 415.477C105.362 415.945 105.492 416.555 105.492 417.305V423H103.109V417.898C103.109 417.273 102.995 416.802 102.766 416.484C102.536 416.167 102.182 416.008 101.703 416.008C101.224 416.008 100.846 416.12 100.57 416.344C100.294 416.562 100.099 416.888 99.9844 417.32C99.8698 417.747 99.8125 418.271 99.8125 418.891V423H97.4297V410.844H99.8125ZM111.547 414.102C112.354 414.102 113.049 414.258 113.633 414.57C114.216 414.878 114.667 415.326 114.984 415.914C115.302 416.503 115.461 417.221 115.461 418.07V419.227H109.828C109.854 419.898 110.055 420.427 110.43 420.812C110.81 421.193 111.336 421.383 112.008 421.383C112.565 421.383 113.076 421.326 113.539 421.211C114.003 421.096 114.479 420.924 114.969 420.695V422.539C114.536 422.753 114.083 422.909 113.609 423.008C113.141 423.107 112.57 423.156 111.898 423.156C111.023 423.156 110.247 422.995 109.57 422.672C108.898 422.349 108.37 421.857 107.984 421.195C107.604 420.534 107.414 419.701 107.414 418.695C107.414 417.674 107.586 416.826 107.93 416.148C108.279 415.466 108.763 414.956 109.383 414.617C110.003 414.273 110.724 414.102 111.547 414.102ZM111.562 415.797C111.099 415.797 110.714 415.945 110.406 416.242C110.104 416.539 109.93 417.005 109.883 417.641H113.227C113.221 417.286 113.156 416.971 113.031 416.695C112.911 416.419 112.729 416.201 112.484 416.039C112.245 415.878 111.938 415.797 111.562 415.797ZM122.273 414.102C122.393 414.102 122.531 414.109 122.688 414.125C122.849 414.135 122.979 414.151 123.078 414.172L122.898 416.406C122.82 416.38 122.708 416.362 122.562 416.352C122.422 416.336 122.299 416.328 122.195 416.328C121.888 416.328 121.589 416.367 121.297 416.445C121.01 416.523 120.753 416.651 120.523 416.828C120.294 417 120.112 417.229 119.977 417.516C119.846 417.797 119.781 418.143 119.781 418.555V423H117.398V414.266H119.203L119.555 415.734H119.672C119.844 415.438 120.057 415.167 120.312 414.922C120.573 414.672 120.867 414.474 121.195 414.328C121.529 414.177 121.888 414.102 122.273 414.102ZM128.266 414.102C129.073 414.102 129.768 414.258 130.352 414.57C130.935 414.878 131.385 415.326 131.703 415.914C132.021 416.503 132.18 417.221 132.18 418.07V419.227H126.547C126.573 419.898 126.773 420.427 127.148 420.812C127.529 421.193 128.055 421.383 128.727 421.383C129.284 421.383 129.794 421.326 130.258 421.211C130.721 421.096 131.198 420.924 131.688 420.695V422.539C131.255 422.753 130.802 422.909 130.328 423.008C129.859 423.107 129.289 423.156 128.617 423.156C127.742 423.156 126.966 422.995 126.289 422.672C125.617 422.349 125.089 421.857 124.703 421.195C124.323 420.534 124.133 419.701 124.133 418.695C124.133 417.674 124.305 416.826 124.648 416.148C124.997 415.466 125.482 414.956 126.102 414.617C126.721 414.273 127.443 414.102 128.266 414.102ZM128.281 415.797C127.818 415.797 127.432 415.945 127.125 416.242C126.823 416.539 126.648 417.005 126.602 417.641H129.945C129.94 417.286 129.875 416.971 129.75 416.695C129.63 416.419 129.448 416.201 129.203 416.039C128.964 415.878 128.656 415.797 128.281 415.797ZM141.875 414.102C142.682 414.102 143.378 414.258 143.961 414.57C144.544 414.878 144.995 415.326 145.312 415.914C145.63 416.503 145.789 417.221 145.789 418.07V419.227H140.156C140.182 419.898 140.383 420.427 140.758 420.812C141.138 421.193 141.664 421.383 142.336 421.383C142.893 421.383 143.404 421.326 143.867 421.211C144.331 421.096 144.807 420.924 145.297 420.695V422.539C144.865 422.753 144.411 422.909 143.938 423.008C143.469 423.107 142.898 423.156 142.227 423.156C141.352 423.156 140.576 422.995 139.898 422.672C139.227 422.349 138.698 421.857 138.312 421.195C137.932 420.534 137.742 419.701 137.742 418.695C137.742 417.674 137.914 416.826 138.258 416.148C138.607 415.466 139.091 414.956 139.711 414.617C140.331 414.273 141.052 414.102 141.875 414.102ZM141.891 415.797C141.427 415.797 141.042 415.945 140.734 416.242C140.432 416.539 140.258 417.005 140.211 417.641H143.555C143.549 417.286 143.484 416.971 143.359 416.695C143.24 416.419 143.057 416.201 142.812 416.039C142.573 415.878 142.266 415.797 141.891 415.797ZM151.305 414.086C152.477 414.086 153.375 414.341 154 414.852C154.625 415.362 154.938 416.138 154.938 417.18V423H153.273L152.812 421.812H152.75C152.5 422.125 152.245 422.38 151.984 422.578C151.724 422.776 151.424 422.922 151.086 423.016C150.747 423.109 150.336 423.156 149.852 423.156C149.336 423.156 148.872 423.057 148.461 422.859C148.055 422.661 147.734 422.359 147.5 421.953C147.266 421.542 147.148 421.021 147.148 420.391C147.148 419.464 147.474 418.781 148.125 418.344C148.776 417.901 149.753 417.656 151.055 417.609L152.57 417.562V417.18C152.57 416.721 152.451 416.385 152.211 416.172C151.971 415.958 151.638 415.852 151.211 415.852C150.789 415.852 150.375 415.911 149.969 416.031C149.562 416.151 149.156 416.302 148.75 416.484L147.961 414.875C148.424 414.63 148.943 414.438 149.516 414.297C150.094 414.156 150.69 414.086 151.305 414.086ZM152.57 418.953L151.648 418.984C150.878 419.005 150.341 419.143 150.039 419.398C149.742 419.654 149.594 419.99 149.594 420.406C149.594 420.771 149.701 421.031 149.914 421.188C150.128 421.339 150.406 421.414 150.75 421.414C151.26 421.414 151.69 421.263 152.039 420.961C152.393 420.659 152.57 420.229 152.57 419.672V418.953ZM160.945 423.156C160.081 423.156 159.344 423 158.734 422.688C158.125 422.37 157.661 421.88 157.344 421.219C157.026 420.557 156.867 419.711 156.867 418.68C156.867 417.612 157.047 416.742 157.406 416.07C157.771 415.393 158.273 414.896 158.914 414.578C159.56 414.26 160.307 414.102 161.156 414.102C161.76 414.102 162.281 414.161 162.719 414.281C163.161 414.396 163.547 414.534 163.875 414.695L163.172 416.539C162.797 416.388 162.448 416.266 162.125 416.172C161.802 416.073 161.479 416.023 161.156 416.023C160.74 416.023 160.393 416.122 160.117 416.32C159.841 416.513 159.635 416.805 159.5 417.195C159.365 417.586 159.297 418.076 159.297 418.664C159.297 419.242 159.37 419.721 159.516 420.102C159.661 420.482 159.872 420.766 160.148 420.953C160.424 421.135 160.76 421.227 161.156 421.227C161.651 421.227 162.091 421.161 162.477 421.031C162.862 420.896 163.237 420.708 163.602 420.469V422.508C163.237 422.737 162.854 422.901 162.453 423C162.057 423.104 161.555 423.156 160.945 423.156ZM168.016 410.844V413.32C168.016 413.753 168 414.164 167.969 414.555C167.943 414.945 167.922 415.221 167.906 415.383H168.031C168.219 415.081 168.44 414.836 168.695 414.648C168.956 414.461 169.242 414.323 169.555 414.234C169.867 414.146 170.203 414.102 170.562 414.102C171.193 414.102 171.742 414.214 172.211 414.438C172.68 414.656 173.044 415.003 173.305 415.477C173.565 415.945 173.695 416.555 173.695 417.305V423H171.312V417.898C171.312 417.273 171.198 416.802 170.969 416.484C170.74 416.167 170.385 416.008 169.906 416.008C169.427 416.008 169.049 416.12 168.773 416.344C168.497 416.562 168.302 416.888 168.188 417.32C168.073 417.747 168.016 418.271 168.016 418.891V423H165.633V410.844H168.016ZM185.164 414.102C186.148 414.102 186.943 414.484 187.547 415.25C188.156 416.016 188.461 417.138 188.461 418.617C188.461 419.607 188.318 420.44 188.031 421.117C187.745 421.789 187.349 422.297 186.844 422.641C186.339 422.984 185.758 423.156 185.102 423.156C184.68 423.156 184.318 423.104 184.016 423C183.714 422.891 183.456 422.753 183.242 422.586C183.029 422.414 182.844 422.232 182.688 422.039H182.562C182.604 422.247 182.635 422.461 182.656 422.68C182.677 422.898 182.688 423.112 182.688 423.32V426.844H180.305V414.266H182.242L182.578 415.398H182.688C182.844 415.164 183.034 414.948 183.258 414.75C183.482 414.552 183.75 414.396 184.062 414.281C184.38 414.161 184.747 414.102 185.164 414.102ZM184.398 416.008C183.982 416.008 183.651 416.094 183.406 416.266C183.161 416.438 182.982 416.695 182.867 417.039C182.758 417.383 182.698 417.818 182.688 418.344V418.602C182.688 419.164 182.74 419.641 182.844 420.031C182.953 420.422 183.133 420.719 183.383 420.922C183.638 421.125 183.987 421.227 184.43 421.227C184.794 421.227 185.094 421.125 185.328 420.922C185.562 420.719 185.737 420.422 185.852 420.031C185.971 419.635 186.031 419.154 186.031 418.586C186.031 417.732 185.898 417.089 185.633 416.656C185.367 416.224 184.956 416.008 184.398 416.008ZM194.008 414.086C195.18 414.086 196.078 414.341 196.703 414.852C197.328 415.362 197.641 416.138 197.641 417.18V423H195.977L195.516 421.812H195.453C195.203 422.125 194.948 422.38 194.688 422.578C194.427 422.776 194.128 422.922 193.789 423.016C193.451 423.109 193.039 423.156 192.555 423.156C192.039 423.156 191.576 423.057 191.164 422.859C190.758 422.661 190.438 422.359 190.203 421.953C189.969 421.542 189.852 421.021 189.852 420.391C189.852 419.464 190.177 418.781 190.828 418.344C191.479 417.901 192.456 417.656 193.758 417.609L195.273 417.562V417.18C195.273 416.721 195.154 416.385 194.914 416.172C194.674 415.958 194.341 415.852 193.914 415.852C193.492 415.852 193.078 415.911 192.672 416.031C192.266 416.151 191.859 416.302 191.453 416.484L190.664 414.875C191.128 414.63 191.646 414.438 192.219 414.297C192.797 414.156 193.393 414.086 194.008 414.086ZM195.273 418.953L194.352 418.984C193.581 419.005 193.044 419.143 192.742 419.398C192.445 419.654 192.297 419.99 192.297 420.406C192.297 420.771 192.404 421.031 192.617 421.188C192.831 421.339 193.109 421.414 193.453 421.414C193.964 421.414 194.393 421.263 194.742 420.961C195.096 420.659 195.273 420.229 195.273 419.672V418.953ZM202.656 426.844C201.438 426.844 200.505 426.63 199.859 426.203C199.219 425.781 198.898 425.188 198.898 424.422C198.898 423.896 199.062 423.456 199.391 423.102C199.719 422.747 200.201 422.495 200.836 422.344C200.591 422.24 200.378 422.07 200.195 421.836C200.013 421.596 199.922 421.344 199.922 421.078C199.922 420.745 200.018 420.469 200.211 420.25C200.404 420.026 200.682 419.807 201.047 419.594C200.589 419.396 200.224 419.078 199.953 418.641C199.688 418.203 199.555 417.688 199.555 417.094C199.555 416.458 199.693 415.919 199.969 415.477C200.25 415.029 200.656 414.688 201.188 414.453C201.724 414.219 202.375 414.102 203.141 414.102C203.302 414.102 203.49 414.112 203.703 414.133C203.917 414.154 204.112 414.177 204.289 414.203C204.471 414.229 204.594 414.25 204.656 414.266H207.703V415.477L206.336 415.828C206.461 416.021 206.555 416.227 206.617 416.445C206.68 416.664 206.711 416.896 206.711 417.141C206.711 418.078 206.383 418.81 205.727 419.336C205.076 419.857 204.169 420.117 203.008 420.117C202.732 420.102 202.471 420.081 202.227 420.055C202.107 420.148 202.016 420.247 201.953 420.352C201.891 420.456 201.859 420.565 201.859 420.68C201.859 420.794 201.906 420.891 202 420.969C202.099 421.042 202.245 421.099 202.438 421.141C202.635 421.177 202.88 421.195 203.172 421.195H204.656C205.615 421.195 206.344 421.401 206.844 421.812C207.349 422.224 207.602 422.828 207.602 423.625C207.602 424.646 207.174 425.438 206.32 426C205.471 426.562 204.25 426.844 202.656 426.844ZM202.758 425.289C203.326 425.289 203.812 425.234 204.219 425.125C204.63 425.021 204.945 424.87 205.164 424.672C205.383 424.479 205.492 424.247 205.492 423.977C205.492 423.758 205.427 423.583 205.297 423.453C205.172 423.328 204.979 423.24 204.719 423.188C204.464 423.135 204.135 423.109 203.734 423.109H202.5C202.208 423.109 201.945 423.156 201.711 423.25C201.482 423.344 201.299 423.474 201.164 423.641C201.029 423.812 200.961 424.01 200.961 424.234C200.961 424.562 201.117 424.82 201.43 425.008C201.747 425.195 202.19 425.289 202.758 425.289ZM203.141 418.664C203.589 418.664 203.917 418.526 204.125 418.25C204.333 417.974 204.438 417.599 204.438 417.125C204.438 416.599 204.328 416.206 204.109 415.945C203.896 415.68 203.573 415.547 203.141 415.547C202.703 415.547 202.375 415.68 202.156 415.945C201.938 416.206 201.828 416.599 201.828 417.125C201.828 417.599 201.935 417.974 202.148 418.25C202.367 418.526 202.698 418.664 203.141 418.664ZM212.75 414.102C213.557 414.102 214.253 414.258 214.836 414.57C215.419 414.878 215.87 415.326 216.188 415.914C216.505 416.503 216.664 417.221 216.664 418.07V419.227H211.031C211.057 419.898 211.258 420.427 211.633 420.812C212.013 421.193 212.539 421.383 213.211 421.383C213.768 421.383 214.279 421.326 214.742 421.211C215.206 421.096 215.682 420.924 216.172 420.695V422.539C215.74 422.753 215.286 422.909 214.812 423.008C214.344 423.107 213.773 423.156 213.102 423.156C212.227 423.156 211.451 422.995 210.773 422.672C210.102 422.349 209.573 421.857 209.188 421.195C208.807 420.534 208.617 419.701 208.617 418.695C208.617 417.674 208.789 416.826 209.133 416.148C209.482 415.466 209.966 414.956 210.586 414.617C211.206 414.273 211.927 414.102 212.75 414.102ZM212.766 415.797C212.302 415.797 211.917 415.945 211.609 416.242C211.307 416.539 211.133 417.005 211.086 417.641H214.43C214.424 417.286 214.359 416.971 214.234 416.695C214.115 416.419 213.932 416.201 213.688 416.039C213.448 415.878 213.141 415.797 212.766 415.797ZM225.141 414.266V423H222.758V414.266H225.141ZM223.953 410.844C224.307 410.844 224.612 410.927 224.867 411.094C225.122 411.255 225.25 411.56 225.25 412.008C225.25 412.451 225.122 412.758 224.867 412.93C224.612 413.096 224.307 413.18 223.953 413.18C223.594 413.18 223.286 413.096 223.031 412.93C222.781 412.758 222.656 412.451 222.656 412.008C222.656 411.56 222.781 411.255 223.031 411.094C223.286 410.927 223.594 410.844 223.953 410.844ZM233.742 420.406C233.742 421 233.602 421.503 233.32 421.914C233.044 422.32 232.63 422.63 232.078 422.844C231.526 423.052 230.839 423.156 230.016 423.156C229.406 423.156 228.883 423.117 228.445 423.039C228.013 422.961 227.576 422.831 227.133 422.648V420.68C227.607 420.893 228.115 421.07 228.656 421.211C229.203 421.346 229.682 421.414 230.094 421.414C230.557 421.414 230.888 421.346 231.086 421.211C231.289 421.07 231.391 420.888 231.391 420.664C231.391 420.518 231.349 420.388 231.266 420.273C231.188 420.154 231.016 420.021 230.75 419.875C230.484 419.724 230.068 419.529 229.5 419.289C228.953 419.06 228.503 418.828 228.148 418.594C227.799 418.359 227.539 418.083 227.367 417.766C227.201 417.443 227.117 417.034 227.117 416.539C227.117 415.732 227.43 415.125 228.055 414.719C228.685 414.307 229.526 414.102 230.578 414.102C231.12 414.102 231.635 414.156 232.125 414.266C232.62 414.375 233.128 414.549 233.648 414.789L232.93 416.508C232.497 416.32 232.089 416.167 231.703 416.047C231.323 415.927 230.935 415.867 230.539 415.867C230.19 415.867 229.927 415.914 229.75 416.008C229.573 416.102 229.484 416.245 229.484 416.438C229.484 416.578 229.529 416.703 229.617 416.812C229.711 416.922 229.888 417.044 230.148 417.18C230.414 417.31 230.802 417.479 231.312 417.688C231.807 417.891 232.237 418.104 232.602 418.328C232.966 418.547 233.247 418.82 233.445 419.148C233.643 419.471 233.742 419.891 233.742 420.406ZM243.336 414.086C244.508 414.086 245.406 414.341 246.031 414.852C246.656 415.362 246.969 416.138 246.969 417.18V423H245.305L244.844 421.812H244.781C244.531 422.125 244.276 422.38 244.016 422.578C243.755 422.776 243.456 422.922 243.117 423.016C242.779 423.109 242.367 423.156 241.883 423.156C241.367 423.156 240.904 423.057 240.492 422.859C240.086 422.661 239.766 422.359 239.531 421.953C239.297 421.542 239.18 421.021 239.18 420.391C239.18 419.464 239.505 418.781 240.156 418.344C240.807 417.901 241.784 417.656 243.086 417.609L244.602 417.562V417.18C244.602 416.721 244.482 416.385 244.242 416.172C244.003 415.958 243.669 415.852 243.242 415.852C242.82 415.852 242.406 415.911 242 416.031C241.594 416.151 241.188 416.302 240.781 416.484L239.992 414.875C240.456 414.63 240.974 414.438 241.547 414.297C242.125 414.156 242.721 414.086 243.336 414.086ZM244.602 418.953L243.68 418.984C242.909 419.005 242.372 419.143 242.07 419.398C241.773 419.654 241.625 419.99 241.625 420.406C241.625 420.771 241.732 421.031 241.945 421.188C242.159 421.339 242.438 421.414 242.781 421.414C243.292 421.414 243.721 421.263 244.07 420.961C244.424 420.659 244.602 420.229 244.602 419.672V418.953ZM258.445 414.102C259.43 414.102 260.224 414.484 260.828 415.25C261.438 416.016 261.742 417.138 261.742 418.617C261.742 419.607 261.599 420.44 261.312 421.117C261.026 421.789 260.63 422.297 260.125 422.641C259.62 422.984 259.039 423.156 258.383 423.156C257.961 423.156 257.599 423.104 257.297 423C256.995 422.891 256.737 422.753 256.523 422.586C256.31 422.414 256.125 422.232 255.969 422.039H255.844C255.885 422.247 255.917 422.461 255.938 422.68C255.958 422.898 255.969 423.112 255.969 423.32V426.844H253.586V414.266H255.523L255.859 415.398H255.969C256.125 415.164 256.315 414.948 256.539 414.75C256.763 414.552 257.031 414.396 257.344 414.281C257.661 414.161 258.029 414.102 258.445 414.102ZM257.68 416.008C257.263 416.008 256.932 416.094 256.688 416.266C256.443 416.438 256.263 416.695 256.148 417.039C256.039 417.383 255.979 417.818 255.969 418.344V418.602C255.969 419.164 256.021 419.641 256.125 420.031C256.234 420.422 256.414 420.719 256.664 420.922C256.919 421.125 257.268 421.227 257.711 421.227C258.076 421.227 258.375 421.125 258.609 420.922C258.844 420.719 259.018 420.422 259.133 420.031C259.253 419.635 259.312 419.154 259.312 418.586C259.312 417.732 259.18 417.089 258.914 416.656C258.648 416.224 258.237 416.008 257.68 416.008ZM271.648 418.617C271.648 419.346 271.549 419.992 271.352 420.555C271.159 421.117 270.875 421.594 270.5 421.984C270.13 422.37 269.682 422.661 269.156 422.859C268.635 423.057 268.047 423.156 267.391 423.156C266.776 423.156 266.211 423.057 265.695 422.859C265.185 422.661 264.74 422.37 264.359 421.984C263.984 421.594 263.693 421.117 263.484 420.555C263.281 419.992 263.18 419.346 263.18 418.617C263.18 417.648 263.352 416.828 263.695 416.156C264.039 415.484 264.529 414.974 265.164 414.625C265.799 414.276 266.557 414.102 267.438 414.102C268.255 414.102 268.979 414.276 269.609 414.625C270.245 414.974 270.742 415.484 271.102 416.156C271.466 416.828 271.648 417.648 271.648 418.617ZM265.609 418.617C265.609 419.19 265.672 419.672 265.797 420.062C265.922 420.453 266.117 420.747 266.383 420.945C266.648 421.143 266.995 421.242 267.422 421.242C267.844 421.242 268.185 421.143 268.445 420.945C268.711 420.747 268.904 420.453 269.023 420.062C269.148 419.672 269.211 419.19 269.211 418.617C269.211 418.039 269.148 417.56 269.023 417.18C268.904 416.794 268.711 416.505 268.445 416.312C268.18 416.12 267.833 416.023 267.406 416.023C266.776 416.023 266.318 416.24 266.031 416.672C265.75 417.104 265.609 417.753 265.609 418.617ZM278.492 414.102C278.612 414.102 278.75 414.109 278.906 414.125C279.068 414.135 279.198 414.151 279.297 414.172L279.117 416.406C279.039 416.38 278.927 416.362 278.781 416.352C278.641 416.336 278.518 416.328 278.414 416.328C278.107 416.328 277.807 416.367 277.516 416.445C277.229 416.523 276.971 416.651 276.742 416.828C276.513 417 276.331 417.229 276.195 417.516C276.065 417.797 276 418.143 276 418.555V423H273.617V414.266H275.422L275.773 415.734H275.891C276.062 415.438 276.276 415.167 276.531 414.922C276.792 414.672 277.086 414.474 277.414 414.328C277.747 414.177 278.107 414.102 278.492 414.102ZM284.562 421.258C284.823 421.258 285.076 421.232 285.32 421.18C285.57 421.128 285.818 421.062 286.062 420.984V422.758C285.807 422.872 285.49 422.966 285.109 423.039C284.734 423.117 284.323 423.156 283.875 423.156C283.354 423.156 282.885 423.073 282.469 422.906C282.057 422.734 281.732 422.44 281.492 422.023C281.258 421.602 281.141 421.016 281.141 420.266V416.055H280V415.047L281.312 414.25L282 412.406H283.523V414.266H285.969V416.055H283.523V420.266C283.523 420.599 283.617 420.849 283.805 421.016C283.997 421.177 284.25 421.258 284.562 421.258ZM291.414 414.086C292.586 414.086 293.484 414.341 294.109 414.852C294.734 415.362 295.047 416.138 295.047 417.18V423H293.383L292.922 421.812H292.859C292.609 422.125 292.354 422.38 292.094 422.578C291.833 422.776 291.534 422.922 291.195 423.016C290.857 423.109 290.445 423.156 289.961 423.156C289.445 423.156 288.982 423.057 288.57 422.859C288.164 422.661 287.844 422.359 287.609 421.953C287.375 421.542 287.258 421.021 287.258 420.391C287.258 419.464 287.583 418.781 288.234 418.344C288.885 417.901 289.862 417.656 291.164 417.609L292.68 417.562V417.18C292.68 416.721 292.56 416.385 292.32 416.172C292.081 415.958 291.747 415.852 291.32 415.852C290.898 415.852 290.484 415.911 290.078 416.031C289.672 416.151 289.266 416.302 288.859 416.484L288.07 414.875C288.534 414.63 289.052 414.438 289.625 414.297C290.203 414.156 290.799 414.086 291.414 414.086ZM292.68 418.953L291.758 418.984C290.987 419.005 290.451 419.143 290.148 419.398C289.852 419.654 289.703 419.99 289.703 420.406C289.703 420.771 289.81 421.031 290.023 421.188C290.237 421.339 290.516 421.414 290.859 421.414C291.37 421.414 291.799 421.263 292.148 420.961C292.503 420.659 292.68 420.229 292.68 419.672V418.953ZM299.891 423H297.508V410.844H299.891V423ZM310.234 421.258C310.495 421.258 310.747 421.232 310.992 421.18C311.242 421.128 311.49 421.062 311.734 420.984V422.758C311.479 422.872 311.161 422.966 310.781 423.039C310.406 423.117 309.995 423.156 309.547 423.156C309.026 423.156 308.557 423.073 308.141 422.906C307.729 422.734 307.404 422.44 307.164 422.023C306.93 421.602 306.812 421.016 306.812 420.266V416.055H305.672V415.047L306.984 414.25L307.672 412.406H309.195V414.266H311.641V416.055H309.195V420.266C309.195 420.599 309.289 420.849 309.477 421.016C309.669 421.177 309.922 421.258 310.234 421.258ZM321.445 418.617C321.445 419.346 321.346 419.992 321.148 420.555C320.956 421.117 320.672 421.594 320.297 421.984C319.927 422.37 319.479 422.661 318.953 422.859C318.432 423.057 317.844 423.156 317.188 423.156C316.573 423.156 316.008 423.057 315.492 422.859C314.982 422.661 314.536 422.37 314.156 421.984C313.781 421.594 313.49 421.117 313.281 420.555C313.078 419.992 312.977 419.346 312.977 418.617C312.977 417.648 313.148 416.828 313.492 416.156C313.836 415.484 314.326 414.974 314.961 414.625C315.596 414.276 316.354 414.102 317.234 414.102C318.052 414.102 318.776 414.276 319.406 414.625C320.042 414.974 320.539 415.484 320.898 416.156C321.263 416.828 321.445 417.648 321.445 418.617ZM315.406 418.617C315.406 419.19 315.469 419.672 315.594 420.062C315.719 420.453 315.914 420.747 316.18 420.945C316.445 421.143 316.792 421.242 317.219 421.242C317.641 421.242 317.982 421.143 318.242 420.945C318.508 420.747 318.701 420.453 318.82 420.062C318.945 419.672 319.008 419.19 319.008 418.617C319.008 418.039 318.945 417.56 318.82 417.18C318.701 416.794 318.508 416.505 318.242 416.312C317.977 416.12 317.63 416.023 317.203 416.023C316.573 416.023 316.115 416.24 315.828 416.672C315.547 417.104 315.406 417.753 315.406 418.617ZM332.531 414.102C333.464 414.102 334.214 414.357 334.781 414.867C335.349 415.372 335.633 416.185 335.633 417.305V423H333.25V417.898C333.25 417.273 333.135 416.802 332.906 416.484C332.682 416.167 332.328 416.008 331.844 416.008C331.115 416.008 330.617 416.255 330.352 416.75C330.086 417.245 329.953 417.958 329.953 418.891V423H327.57V414.266H329.391L329.711 415.383H329.844C330.031 415.081 330.263 414.836 330.539 414.648C330.82 414.461 331.13 414.323 331.469 414.234C331.812 414.146 332.167 414.102 332.531 414.102ZM341.688 414.102C342.495 414.102 343.19 414.258 343.773 414.57C344.357 414.878 344.807 415.326 345.125 415.914C345.443 416.503 345.602 417.221 345.602 418.07V419.227H339.969C339.995 419.898 340.195 420.427 340.57 420.812C340.951 421.193 341.477 421.383 342.148 421.383C342.706 421.383 343.216 421.326 343.68 421.211C344.143 421.096 344.62 420.924 345.109 420.695V422.539C344.677 422.753 344.224 422.909 343.75 423.008C343.281 423.107 342.711 423.156 342.039 423.156C341.164 423.156 340.388 422.995 339.711 422.672C339.039 422.349 338.51 421.857 338.125 421.195C337.745 420.534 337.555 419.701 337.555 418.695C337.555 417.674 337.727 416.826 338.07 416.148C338.419 415.466 338.904 414.956 339.523 414.617C340.143 414.273 340.865 414.102 341.688 414.102ZM341.703 415.797C341.24 415.797 340.854 415.945 340.547 416.242C340.245 416.539 340.07 417.005 340.023 417.641H343.367C343.362 417.286 343.297 416.971 343.172 416.695C343.052 416.419 342.87 416.201 342.625 416.039C342.385 415.878 342.078 415.797 341.703 415.797ZM354.719 423L354.047 419.945C354.01 419.763 353.951 419.495 353.867 419.141C353.784 418.781 353.693 418.398 353.594 417.992C353.5 417.581 353.411 417.201 353.328 416.852C353.25 416.503 353.193 416.247 353.156 416.086H353.086C353.049 416.247 352.992 416.503 352.914 416.852C352.836 417.201 352.747 417.581 352.648 417.992C352.555 418.404 352.466 418.792 352.383 419.156C352.299 419.516 352.237 419.789 352.195 419.977L351.492 423H348.93L346.445 414.266H348.82L349.828 418.133C349.896 418.404 349.961 418.727 350.023 419.102C350.086 419.471 350.141 419.831 350.188 420.18C350.24 420.523 350.279 420.797 350.305 421H350.367C350.378 420.849 350.398 420.648 350.43 420.398C350.466 420.148 350.505 419.891 350.547 419.625C350.594 419.354 350.635 419.112 350.672 418.898C350.714 418.68 350.745 418.531 350.766 418.453L351.844 414.266H354.469L355.492 418.453C355.529 418.604 355.576 418.844 355.633 419.172C355.695 419.5 355.75 419.839 355.797 420.188C355.844 420.531 355.87 420.802 355.875 421H355.938C355.958 420.823 355.995 420.56 356.047 420.211C356.099 419.862 356.159 419.497 356.227 419.117C356.299 418.732 356.372 418.404 356.445 418.133L357.492 414.266H359.828L357.312 423H354.719ZM372.578 423L371.906 419.945C371.87 419.763 371.81 419.495 371.727 419.141C371.643 418.781 371.552 418.398 371.453 417.992C371.359 417.581 371.271 417.201 371.188 416.852C371.109 416.503 371.052 416.247 371.016 416.086H370.945C370.909 416.247 370.852 416.503 370.773 416.852C370.695 417.201 370.607 417.581 370.508 417.992C370.414 418.404 370.326 418.792 370.242 419.156C370.159 419.516 370.096 419.789 370.055 419.977L369.352 423H366.789L364.305 414.266H366.68L367.688 418.133C367.755 418.404 367.82 418.727 367.883 419.102C367.945 419.471 368 419.831 368.047 420.18C368.099 420.523 368.138 420.797 368.164 421H368.227C368.237 420.849 368.258 420.648 368.289 420.398C368.326 420.148 368.365 419.891 368.406 419.625C368.453 419.354 368.495 419.112 368.531 418.898C368.573 418.68 368.604 418.531 368.625 418.453L369.703 414.266H372.328L373.352 418.453C373.388 418.604 373.435 418.844 373.492 419.172C373.555 419.5 373.609 419.839 373.656 420.188C373.703 420.531 373.729 420.802 373.734 421H373.797C373.818 420.823 373.854 420.56 373.906 420.211C373.958 419.862 374.018 419.497 374.086 419.117C374.159 418.732 374.232 418.404 374.305 418.133L375.352 414.266H377.688L375.172 423H372.578ZM387.039 418.617C387.039 419.346 386.94 419.992 386.742 420.555C386.549 421.117 386.266 421.594 385.891 421.984C385.521 422.37 385.073 422.661 384.547 422.859C384.026 423.057 383.438 423.156 382.781 423.156C382.167 423.156 381.602 423.057 381.086 422.859C380.576 422.661 380.13 422.37 379.75 421.984C379.375 421.594 379.083 421.117 378.875 420.555C378.672 419.992 378.57 419.346 378.57 418.617C378.57 417.648 378.742 416.828 379.086 416.156C379.43 415.484 379.919 414.974 380.555 414.625C381.19 414.276 381.948 414.102 382.828 414.102C383.646 414.102 384.37 414.276 385 414.625C385.635 414.974 386.133 415.484 386.492 416.156C386.857 416.828 387.039 417.648 387.039 418.617ZM381 418.617C381 419.19 381.062 419.672 381.188 420.062C381.312 420.453 381.508 420.747 381.773 420.945C382.039 421.143 382.385 421.242 382.812 421.242C383.234 421.242 383.576 421.143 383.836 420.945C384.102 420.747 384.294 420.453 384.414 420.062C384.539 419.672 384.602 419.19 384.602 418.617C384.602 418.039 384.539 417.56 384.414 417.18C384.294 416.794 384.102 416.505 383.836 416.312C383.57 416.12 383.224 416.023 382.797 416.023C382.167 416.023 381.708 416.24 381.422 416.672C381.141 417.104 381 417.753 381 418.617ZM393.883 414.102C394.003 414.102 394.141 414.109 394.297 414.125C394.458 414.135 394.589 414.151 394.688 414.172L394.508 416.406C394.43 416.38 394.318 416.362 394.172 416.352C394.031 416.336 393.909 416.328 393.805 416.328C393.497 416.328 393.198 416.367 392.906 416.445C392.62 416.523 392.362 416.651 392.133 416.828C391.904 417 391.721 417.229 391.586 417.516C391.456 417.797 391.391 418.143 391.391 418.555V423H389.008V414.266H390.812L391.164 415.734H391.281C391.453 415.438 391.667 415.167 391.922 414.922C392.182 414.672 392.477 414.474 392.805 414.328C393.138 414.177 393.497 414.102 393.883 414.102ZM398.656 423H396.273V410.844H398.656V423ZM403.93 423.156C402.956 423.156 402.161 422.776 401.547 422.016C400.938 421.25 400.633 420.128 400.633 418.648C400.633 417.154 400.943 416.023 401.562 415.258C402.182 414.487 402.992 414.102 403.992 414.102C404.409 414.102 404.776 414.159 405.094 414.273C405.411 414.388 405.685 414.542 405.914 414.734C406.148 414.927 406.346 415.143 406.508 415.383H406.586C406.555 415.216 406.516 414.971 406.469 414.648C406.427 414.32 406.406 413.984 406.406 413.641V410.844H408.797V423H406.969L406.508 421.867H406.406C406.255 422.107 406.065 422.326 405.836 422.523C405.612 422.716 405.344 422.87 405.031 422.984C404.719 423.099 404.352 423.156 403.93 423.156ZM404.766 421.258C405.417 421.258 405.875 421.065 406.141 420.68C406.411 420.289 406.555 419.703 406.57 418.922V418.664C406.57 417.815 406.44 417.167 406.18 416.719C405.919 416.266 405.435 416.039 404.727 416.039C404.201 416.039 403.789 416.266 403.492 416.719C403.195 417.172 403.047 417.826 403.047 418.68C403.047 419.534 403.195 420.177 403.492 420.609C403.794 421.042 404.219 421.258 404.766 421.258ZM417.383 420.406C417.383 421 417.242 421.503 416.961 421.914C416.685 422.32 416.271 422.63 415.719 422.844C415.167 423.052 414.479 423.156 413.656 423.156C413.047 423.156 412.523 423.117 412.086 423.039C411.654 422.961 411.216 422.831 410.773 422.648V420.68C411.247 420.893 411.755 421.07 412.297 421.211C412.844 421.346 413.323 421.414 413.734 421.414C414.198 421.414 414.529 421.346 414.727 421.211C414.93 421.07 415.031 420.888 415.031 420.664C415.031 420.518 414.99 420.388 414.906 420.273C414.828 420.154 414.656 420.021 414.391 419.875C414.125 419.724 413.708 419.529 413.141 419.289C412.594 419.06 412.143 418.828 411.789 418.594C411.44 418.359 411.18 418.083 411.008 417.766C410.841 417.443 410.758 417.034 410.758 416.539C410.758 415.732 411.07 415.125 411.695 414.719C412.326 414.307 413.167 414.102 414.219 414.102C414.76 414.102 415.276 414.156 415.766 414.266C416.26 414.375 416.768 414.549 417.289 414.789L416.57 416.508C416.138 416.32 415.729 416.167 415.344 416.047C414.964 415.927 414.576 415.867 414.18 415.867C413.831 415.867 413.568 415.914 413.391 416.008C413.214 416.102 413.125 416.245 413.125 416.438C413.125 416.578 413.169 416.703 413.258 416.812C413.352 416.922 413.529 417.044 413.789 417.18C414.055 417.31 414.443 417.479 414.953 417.688C415.448 417.891 415.878 418.104 416.242 418.328C416.607 418.547 416.888 418.82 417.086 419.148C417.284 419.471 417.383 419.891 417.383 420.406ZM431.336 418.617C431.336 419.346 431.237 419.992 431.039 420.555C430.846 421.117 430.562 421.594 430.188 421.984C429.818 422.37 429.37 422.661 428.844 422.859C428.323 423.057 427.734 423.156 427.078 423.156C426.464 423.156 425.898 423.057 425.383 422.859C424.872 422.661 424.427 422.37 424.047 421.984C423.672 421.594 423.38 421.117 423.172 420.555C422.969 419.992 422.867 419.346 422.867 418.617C422.867 417.648 423.039 416.828 423.383 416.156C423.727 415.484 424.216 414.974 424.852 414.625C425.487 414.276 426.245 414.102 427.125 414.102C427.943 414.102 428.667 414.276 429.297 414.625C429.932 414.974 430.43 415.484 430.789 416.156C431.154 416.828 431.336 417.648 431.336 418.617ZM425.297 418.617C425.297 419.19 425.359 419.672 425.484 420.062C425.609 420.453 425.805 420.747 426.07 420.945C426.336 421.143 426.682 421.242 427.109 421.242C427.531 421.242 427.872 421.143 428.133 420.945C428.398 420.747 428.591 420.453 428.711 420.062C428.836 419.672 428.898 419.19 428.898 418.617C428.898 418.039 428.836 417.56 428.711 417.18C428.591 416.794 428.398 416.505 428.133 416.312C427.867 416.12 427.521 416.023 427.094 416.023C426.464 416.023 426.005 416.24 425.719 416.672C425.438 417.104 425.297 417.753 425.297 418.617ZM438.133 416.055H436.07V423H433.688V416.055H432.375V414.906L433.688 414.266V413.625C433.688 412.88 433.812 412.302 434.062 411.891C434.318 411.474 434.674 411.182 435.133 411.016C435.596 410.844 436.143 410.758 436.773 410.758C437.237 410.758 437.659 410.797 438.039 410.875C438.419 410.948 438.729 411.031 438.969 411.125L438.359 412.875C438.177 412.818 437.979 412.766 437.766 412.719C437.552 412.672 437.307 412.648 437.031 412.648C436.698 412.648 436.453 412.75 436.297 412.953C436.146 413.151 436.07 413.406 436.07 413.719V414.266H438.133V416.055ZM451.68 414.266V423H449.852L449.531 421.883H449.406C449.219 422.18 448.984 422.422 448.703 422.609C448.422 422.797 448.112 422.935 447.773 423.023C447.435 423.112 447.083 423.156 446.719 423.156C446.094 423.156 445.549 423.047 445.086 422.828C444.622 422.604 444.26 422.258 444 421.789C443.745 421.32 443.617 420.711 443.617 419.961V414.266H446V419.367C446 419.992 446.112 420.464 446.336 420.781C446.56 421.099 446.917 421.258 447.406 421.258C447.891 421.258 448.271 421.148 448.547 420.93C448.823 420.706 449.016 420.38 449.125 419.953C449.24 419.521 449.297 418.995 449.297 418.375V414.266H451.68ZM459.141 414.102C460.073 414.102 460.823 414.357 461.391 414.867C461.958 415.372 462.242 416.185 462.242 417.305V423H459.859V417.898C459.859 417.273 459.745 416.802 459.516 416.484C459.292 416.167 458.938 416.008 458.453 416.008C457.724 416.008 457.227 416.255 456.961 416.75C456.695 417.245 456.562 417.958 456.562 418.891V423H454.18V414.266H456L456.32 415.383H456.453C456.641 415.081 456.872 414.836 457.148 414.648C457.43 414.461 457.74 414.323 458.078 414.234C458.422 414.146 458.776 414.102 459.141 414.102ZM467.461 423.156C466.487 423.156 465.693 422.776 465.078 422.016C464.469 421.25 464.164 420.128 464.164 418.648C464.164 417.154 464.474 416.023 465.094 415.258C465.714 414.487 466.523 414.102 467.523 414.102C467.94 414.102 468.307 414.159 468.625 414.273C468.943 414.388 469.216 414.542 469.445 414.734C469.68 414.927 469.878 415.143 470.039 415.383H470.117C470.086 415.216 470.047 414.971 470 414.648C469.958 414.32 469.938 413.984 469.938 413.641V410.844H472.328V423H470.5L470.039 421.867H469.938C469.786 422.107 469.596 422.326 469.367 422.523C469.143 422.716 468.875 422.87 468.562 422.984C468.25 423.099 467.883 423.156 467.461 423.156ZM468.297 421.258C468.948 421.258 469.406 421.065 469.672 420.68C469.943 420.289 470.086 419.703 470.102 418.922V418.664C470.102 417.815 469.971 417.167 469.711 416.719C469.451 416.266 468.966 416.039 468.258 416.039C467.732 416.039 467.32 416.266 467.023 416.719C466.727 417.172 466.578 417.826 466.578 418.68C466.578 419.534 466.727 420.177 467.023 420.609C467.326 421.042 467.75 421.258 468.297 421.258ZM478.422 414.102C479.229 414.102 479.924 414.258 480.508 414.57C481.091 414.878 481.542 415.326 481.859 415.914C482.177 416.503 482.336 417.221 482.336 418.07V419.227H476.703C476.729 419.898 476.93 420.427 477.305 420.812C477.685 421.193 478.211 421.383 478.883 421.383C479.44 421.383 479.951 421.326 480.414 421.211C480.878 421.096 481.354 420.924 481.844 420.695V422.539C481.411 422.753 480.958 422.909 480.484 423.008C480.016 423.107 479.445 423.156 478.773 423.156C477.898 423.156 477.122 422.995 476.445 422.672C475.773 422.349 475.245 421.857 474.859 421.195C474.479 420.534 474.289 419.701 474.289 418.695C474.289 417.674 474.461 416.826 474.805 416.148C475.154 415.466 475.638 414.956 476.258 414.617C476.878 414.273 477.599 414.102 478.422 414.102ZM478.438 415.797C477.974 415.797 477.589 415.945 477.281 416.242C476.979 416.539 476.805 417.005 476.758 417.641H480.102C480.096 417.286 480.031 416.971 479.906 416.695C479.786 416.419 479.604 416.201 479.359 416.039C479.12 415.878 478.812 415.797 478.438 415.797ZM489.148 414.102C489.268 414.102 489.406 414.109 489.562 414.125C489.724 414.135 489.854 414.151 489.953 414.172L489.773 416.406C489.695 416.38 489.583 416.362 489.438 416.352C489.297 416.336 489.174 416.328 489.07 416.328C488.763 416.328 488.464 416.367 488.172 416.445C487.885 416.523 487.628 416.651 487.398 416.828C487.169 417 486.987 417.229 486.852 417.516C486.721 417.797 486.656 418.143 486.656 418.555V423H484.273V414.266H486.078L486.43 415.734H486.547C486.719 415.438 486.932 415.167 487.188 414.922C487.448 414.672 487.742 414.474 488.07 414.328C488.404 414.177 488.763 414.102 489.148 414.102ZM497.633 420.406C497.633 421 497.492 421.503 497.211 421.914C496.935 422.32 496.521 422.63 495.969 422.844C495.417 423.052 494.729 423.156 493.906 423.156C493.297 423.156 492.773 423.117 492.336 423.039C491.904 422.961 491.466 422.831 491.023 422.648V420.68C491.497 420.893 492.005 421.07 492.547 421.211C493.094 421.346 493.573 421.414 493.984 421.414C494.448 421.414 494.779 421.346 494.977 421.211C495.18 421.07 495.281 420.888 495.281 420.664C495.281 420.518 495.24 420.388 495.156 420.273C495.078 420.154 494.906 420.021 494.641 419.875C494.375 419.724 493.958 419.529 493.391 419.289C492.844 419.06 492.393 418.828 492.039 418.594C491.69 418.359 491.43 418.083 491.258 417.766C491.091 417.443 491.008 417.034 491.008 416.539C491.008 415.732 491.32 415.125 491.945 414.719C492.576 414.307 493.417 414.102 494.469 414.102C495.01 414.102 495.526 414.156 496.016 414.266C496.51 414.375 497.018 414.549 497.539 414.789L496.82 416.508C496.388 416.32 495.979 416.167 495.594 416.047C495.214 415.927 494.826 415.867 494.43 415.867C494.081 415.867 493.818 415.914 493.641 416.008C493.464 416.102 493.375 416.245 493.375 416.438C493.375 416.578 493.419 416.703 493.508 416.812C493.602 416.922 493.779 417.044 494.039 417.18C494.305 417.31 494.693 417.479 495.203 417.688C495.698 417.891 496.128 418.104 496.492 418.328C496.857 418.547 497.138 418.82 497.336 419.148C497.534 419.471 497.633 419.891 497.633 420.406ZM503.172 421.258C503.432 421.258 503.685 421.232 503.93 421.18C504.18 421.128 504.427 421.062 504.672 420.984V422.758C504.417 422.872 504.099 422.966 503.719 423.039C503.344 423.117 502.932 423.156 502.484 423.156C501.964 423.156 501.495 423.073 501.078 422.906C500.667 422.734 500.341 422.44 500.102 422.023C499.867 421.602 499.75 421.016 499.75 420.266V416.055H498.609V415.047L499.922 414.25L500.609 412.406H502.133V414.266H504.578V416.055H502.133V420.266C502.133 420.599 502.227 420.849 502.414 421.016C502.607 421.177 502.859 421.258 503.172 421.258ZM510.023 414.086C511.195 414.086 512.094 414.341 512.719 414.852C513.344 415.362 513.656 416.138 513.656 417.18V423H511.992L511.531 421.812H511.469C511.219 422.125 510.964 422.38 510.703 422.578C510.443 422.776 510.143 422.922 509.805 423.016C509.466 423.109 509.055 423.156 508.57 423.156C508.055 423.156 507.591 423.057 507.18 422.859C506.773 422.661 506.453 422.359 506.219 421.953C505.984 421.542 505.867 421.021 505.867 420.391C505.867 419.464 506.193 418.781 506.844 418.344C507.495 417.901 508.471 417.656 509.773 417.609L511.289 417.562V417.18C511.289 416.721 511.169 416.385 510.93 416.172C510.69 415.958 510.357 415.852 509.93 415.852C509.508 415.852 509.094 415.911 508.688 416.031C508.281 416.151 507.875 416.302 507.469 416.484L506.68 414.875C507.143 414.63 507.661 414.438 508.234 414.297C508.812 414.156 509.409 414.086 510.023 414.086ZM511.289 418.953L510.367 418.984C509.596 419.005 509.06 419.143 508.758 419.398C508.461 419.654 508.312 419.99 508.312 420.406C508.312 420.771 508.419 421.031 508.633 421.188C508.846 421.339 509.125 421.414 509.469 421.414C509.979 421.414 510.409 421.263 510.758 420.961C511.112 420.659 511.289 420.229 511.289 419.672V418.953ZM521.078 414.102C522.01 414.102 522.76 414.357 523.328 414.867C523.896 415.372 524.18 416.185 524.18 417.305V423H521.797V417.898C521.797 417.273 521.682 416.802 521.453 416.484C521.229 416.167 520.875 416.008 520.391 416.008C519.661 416.008 519.164 416.255 518.898 416.75C518.633 417.245 518.5 417.958 518.5 418.891V423H516.117V414.266H517.938L518.258 415.383H518.391C518.578 415.081 518.81 414.836 519.086 414.648C519.367 414.461 519.677 414.323 520.016 414.234C520.359 414.146 520.714 414.102 521.078 414.102ZM529.398 423.156C528.424 423.156 527.63 422.776 527.016 422.016C526.406 421.25 526.102 420.128 526.102 418.648C526.102 417.154 526.411 416.023 527.031 415.258C527.651 414.487 528.461 414.102 529.461 414.102C529.878 414.102 530.245 414.159 530.562 414.273C530.88 414.388 531.154 414.542 531.383 414.734C531.617 414.927 531.815 415.143 531.977 415.383H532.055C532.023 415.216 531.984 414.971 531.938 414.648C531.896 414.32 531.875 413.984 531.875 413.641V410.844H534.266V423H532.438L531.977 421.867H531.875C531.724 422.107 531.534 422.326 531.305 422.523C531.081 422.716 530.812 422.87 530.5 422.984C530.188 423.099 529.82 423.156 529.398 423.156ZM530.234 421.258C530.885 421.258 531.344 421.065 531.609 420.68C531.88 420.289 532.023 419.703 532.039 418.922V418.664C532.039 417.815 531.909 417.167 531.648 416.719C531.388 416.266 530.904 416.039 530.195 416.039C529.669 416.039 529.258 416.266 528.961 416.719C528.664 417.172 528.516 417.826 528.516 418.68C528.516 419.534 528.664 420.177 528.961 420.609C529.263 421.042 529.688 421.258 530.234 421.258ZM539.141 414.266V423H536.758V414.266H539.141ZM537.953 410.844C538.307 410.844 538.612 410.927 538.867 411.094C539.122 411.255 539.25 411.56 539.25 412.008C539.25 412.451 539.122 412.758 538.867 412.93C538.612 413.096 538.307 413.18 537.953 413.18C537.594 413.18 537.286 413.096 537.031 412.93C536.781 412.758 536.656 412.451 536.656 412.008C536.656 411.56 536.781 411.255 537.031 411.094C537.286 410.927 537.594 410.844 537.953 410.844ZM546.609 414.102C547.542 414.102 548.292 414.357 548.859 414.867C549.427 415.372 549.711 416.185 549.711 417.305V423H547.328V417.898C547.328 417.273 547.214 416.802 546.984 416.484C546.76 416.167 546.406 416.008 545.922 416.008C545.193 416.008 544.695 416.255 544.43 416.75C544.164 417.245 544.031 417.958 544.031 418.891V423H541.648V414.266H543.469L543.789 415.383H543.922C544.109 415.081 544.341 414.836 544.617 414.648C544.898 414.461 545.208 414.323 545.547 414.234C545.891 414.146 546.245 414.102 546.609 414.102ZM554.719 426.844C553.5 426.844 552.568 426.63 551.922 426.203C551.281 425.781 550.961 425.188 550.961 424.422C550.961 423.896 551.125 423.456 551.453 423.102C551.781 422.747 552.263 422.495 552.898 422.344C552.654 422.24 552.44 422.07 552.258 421.836C552.076 421.596 551.984 421.344 551.984 421.078C551.984 420.745 552.081 420.469 552.273 420.25C552.466 420.026 552.745 419.807 553.109 419.594C552.651 419.396 552.286 419.078 552.016 418.641C551.75 418.203 551.617 417.688 551.617 417.094C551.617 416.458 551.755 415.919 552.031 415.477C552.312 415.029 552.719 414.688 553.25 414.453C553.786 414.219 554.438 414.102 555.203 414.102C555.365 414.102 555.552 414.112 555.766 414.133C555.979 414.154 556.174 414.177 556.352 414.203C556.534 414.229 556.656 414.25 556.719 414.266H559.766V415.477L558.398 415.828C558.523 416.021 558.617 416.227 558.68 416.445C558.742 416.664 558.773 416.896 558.773 417.141C558.773 418.078 558.445 418.81 557.789 419.336C557.138 419.857 556.232 420.117 555.07 420.117C554.794 420.102 554.534 420.081 554.289 420.055C554.169 420.148 554.078 420.247 554.016 420.352C553.953 420.456 553.922 420.565 553.922 420.68C553.922 420.794 553.969 420.891 554.062 420.969C554.161 421.042 554.307 421.099 554.5 421.141C554.698 421.177 554.943 421.195 555.234 421.195H556.719C557.677 421.195 558.406 421.401 558.906 421.812C559.411 422.224 559.664 422.828 559.664 423.625C559.664 424.646 559.237 425.438 558.383 426C557.534 426.562 556.312 426.844 554.719 426.844ZM554.82 425.289C555.388 425.289 555.875 425.234 556.281 425.125C556.693 425.021 557.008 424.87 557.227 424.672C557.445 424.479 557.555 424.247 557.555 423.977C557.555 423.758 557.49 423.583 557.359 423.453C557.234 423.328 557.042 423.24 556.781 423.188C556.526 423.135 556.198 423.109 555.797 423.109H554.562C554.271 423.109 554.008 423.156 553.773 423.25C553.544 423.344 553.362 423.474 553.227 423.641C553.091 423.812 553.023 424.01 553.023 424.234C553.023 424.562 553.18 424.82 553.492 425.008C553.81 425.195 554.253 425.289 554.82 425.289ZM555.203 418.664C555.651 418.664 555.979 418.526 556.188 418.25C556.396 417.974 556.5 417.599 556.5 417.125C556.5 416.599 556.391 416.206 556.172 415.945C555.958 415.68 555.635 415.547 555.203 415.547C554.766 415.547 554.438 415.68 554.219 415.945C554 416.206 553.891 416.599 553.891 417.125C553.891 417.599 553.997 417.974 554.211 418.25C554.43 418.526 554.76 418.664 555.203 418.664ZM560.875 421.883C560.875 421.393 561.008 421.049 561.273 420.852C561.544 420.654 561.87 420.555 562.25 420.555C562.62 420.555 562.938 420.654 563.203 420.852C563.474 421.049 563.609 421.393 563.609 421.883C563.609 422.352 563.474 422.69 563.203 422.898C562.938 423.107 562.62 423.211 562.25 423.211C561.87 423.211 561.544 423.107 561.273 422.898C561.008 422.69 560.875 422.352 560.875 421.883Z" fill="#F1F1F1"/>
<path d="M282.203 86.8672L277.844 104H273.707L271.387 95C271.34 94.8281 271.277 94.5664 271.199 94.2148C271.121 93.8633 271.039 93.4805 270.953 93.0664C270.867 92.6445 270.789 92.25 270.719 91.8828C270.656 91.5078 270.613 91.2109 270.59 90.9922C270.566 91.2109 270.52 91.5039 270.449 91.8711C270.387 92.2383 270.312 92.6289 270.227 93.043C270.148 93.457 270.07 93.8438 269.992 94.2031C269.914 94.5625 269.852 94.8359 269.805 95.0234L267.496 104H263.371L259 86.8672H262.574L264.766 96.2188C264.828 96.5 264.898 96.8359 264.977 97.2266C265.062 97.6172 265.145 98.0273 265.223 98.457C265.309 98.8789 265.383 99.2891 265.445 99.6875C265.516 100.078 265.566 100.418 265.598 100.707C265.637 100.41 265.688 100.066 265.75 99.6758C265.812 99.2773 265.879 98.875 265.949 98.4688C266.027 98.0547 266.105 97.6719 266.184 97.3203C266.262 96.9688 266.332 96.6836 266.395 96.4648L268.891 86.8672H272.324L274.82 96.4648C274.875 96.6758 274.938 96.9609 275.008 97.3203C275.086 97.6719 275.164 98.0547 275.242 98.4688C275.32 98.8828 275.391 99.2891 275.453 99.6875C275.523 100.078 275.574 100.418 275.605 100.707C275.66 100.316 275.734 99.8438 275.828 99.2891C275.93 98.7266 276.035 98.168 276.145 97.6133C276.262 97.0586 276.363 96.5938 276.449 96.2188L278.629 86.8672H282.203ZM289.48 90.6523C290.691 90.6523 291.734 90.8867 292.609 91.3555C293.484 91.8164 294.16 92.4883 294.637 93.3711C295.113 94.2539 295.352 95.332 295.352 96.6055V98.3398H286.902C286.941 99.3477 287.242 100.141 287.805 100.719C288.375 101.289 289.164 101.574 290.172 101.574C291.008 101.574 291.773 101.488 292.469 101.316C293.164 101.145 293.879 100.887 294.613 100.543V103.309C293.965 103.629 293.285 103.863 292.574 104.012C291.871 104.16 291.016 104.234 290.008 104.234C288.695 104.234 287.531 103.992 286.516 103.508C285.508 103.023 284.715 102.285 284.137 101.293C283.566 100.301 283.281 99.0508 283.281 97.543C283.281 96.0117 283.539 94.7383 284.055 93.7227C284.578 92.6992 285.305 91.9336 286.234 91.4258C287.164 90.9102 288.246 90.6523 289.48 90.6523ZM289.504 93.1953C288.809 93.1953 288.23 93.418 287.77 93.8633C287.316 94.3086 287.055 95.0078 286.984 95.9609H292C291.992 95.4297 291.895 94.957 291.707 94.543C291.527 94.1289 291.254 93.8008 290.887 93.5586C290.527 93.3164 290.066 93.1953 289.504 93.1953ZM301.832 104H298.258V85.7656H301.832V104ZM310.914 104.234C309.617 104.234 308.512 104 307.598 103.531C306.684 103.055 305.988 102.32 305.512 101.328C305.035 100.336 304.797 99.0664 304.797 97.5195C304.797 95.918 305.066 94.6133 305.605 93.6055C306.152 92.5898 306.906 91.8438 307.867 91.3672C308.836 90.8906 309.957 90.6523 311.23 90.6523C312.137 90.6523 312.918 90.7422 313.574 90.9219C314.238 91.0938 314.816 91.3008 315.309 91.543L314.254 94.3086C313.691 94.082 313.168 93.8984 312.684 93.7578C312.199 93.6094 311.715 93.5352 311.23 93.5352C310.605 93.5352 310.086 93.6836 309.672 93.9805C309.258 94.2695 308.949 94.707 308.746 95.293C308.543 95.8789 308.441 96.6133 308.441 97.4961C308.441 98.3633 308.551 99.082 308.77 99.6523C308.988 100.223 309.305 100.648 309.719 100.93C310.133 101.203 310.637 101.34 311.23 101.34C311.973 101.34 312.633 101.242 313.211 101.047C313.789 100.844 314.352 100.562 314.898 100.203V103.262C314.352 103.605 313.777 103.852 313.176 104C312.582 104.156 311.828 104.234 310.914 104.234ZM329.852 97.4258C329.852 98.5195 329.703 99.4883 329.406 100.332C329.117 101.176 328.691 101.891 328.129 102.477C327.574 103.055 326.902 103.492 326.113 103.789C325.332 104.086 324.449 104.234 323.465 104.234C322.543 104.234 321.695 104.086 320.922 103.789C320.156 103.492 319.488 103.055 318.918 102.477C318.355 101.891 317.918 101.176 317.605 100.332C317.301 99.4883 317.148 98.5195 317.148 97.4258C317.148 95.9727 317.406 94.7422 317.922 93.7344C318.438 92.7266 319.172 91.9609 320.125 91.4375C321.078 90.9141 322.215 90.6523 323.535 90.6523C324.762 90.6523 325.848 90.9141 326.793 91.4375C327.746 91.9609 328.492 92.7266 329.031 93.7344C329.578 94.7422 329.852 95.9727 329.852 97.4258ZM320.793 97.4258C320.793 98.2852 320.887 99.0078 321.074 99.5938C321.262 100.18 321.555 100.621 321.953 100.918C322.352 101.215 322.871 101.363 323.512 101.363C324.145 101.363 324.656 101.215 325.047 100.918C325.445 100.621 325.734 100.18 325.914 99.5938C326.102 99.0078 326.195 98.2852 326.195 97.4258C326.195 96.5586 326.102 95.8398 325.914 95.2695C325.734 94.6914 325.445 94.2578 325.047 93.9688C324.648 93.6797 324.129 93.5352 323.488 93.5352C322.543 93.5352 321.855 93.8594 321.426 94.5078C321.004 95.1562 320.793 96.1289 320.793 97.4258ZM348.191 90.6523C349.676 90.6523 350.797 91.0352 351.555 91.8008C352.32 92.5586 352.703 93.7773 352.703 95.457V104H349.117V96.3477C349.117 95.4102 348.957 94.7031 348.637 94.2266C348.316 93.75 347.82 93.5117 347.148 93.5117C346.203 93.5117 345.531 93.8516 345.133 94.5312C344.734 95.2031 344.535 96.168 344.535 97.4258V104H340.961V96.3477C340.961 95.7227 340.891 95.1992 340.75 94.7773C340.609 94.3555 340.395 94.0391 340.105 93.8281C339.816 93.6172 339.445 93.5117 338.992 93.5117C338.328 93.5117 337.805 93.6797 337.422 94.0156C337.047 94.3438 336.777 94.832 336.613 95.4805C336.457 96.1211 336.379 96.9062 336.379 97.8359V104H332.805V90.8984H335.535L336.016 92.5742H336.215C336.48 92.1211 336.812 91.7539 337.211 91.4727C337.617 91.1914 338.062 90.9844 338.547 90.8516C339.031 90.7188 339.523 90.6523 340.023 90.6523C340.984 90.6523 341.797 90.8086 342.461 91.1211C343.133 91.4336 343.648 91.918 344.008 92.5742H344.324C344.715 91.9023 345.266 91.4141 345.977 91.1094C346.695 90.8047 347.434 90.6523 348.191 90.6523ZM361.785 90.6523C362.996 90.6523 364.039 90.8867 364.914 91.3555C365.789 91.8164 366.465 92.4883 366.941 93.3711C367.418 94.2539 367.656 95.332 367.656 96.6055V98.3398H359.207C359.246 99.3477 359.547 100.141 360.109 100.719C360.68 101.289 361.469 101.574 362.477 101.574C363.312 101.574 364.078 101.488 364.773 101.316C365.469 101.145 366.184 100.887 366.918 100.543V103.309C366.27 103.629 365.59 103.863 364.879 104.012C364.176 104.16 363.32 104.234 362.312 104.234C361 104.234 359.836 103.992 358.82 103.508C357.812 103.023 357.02 102.285 356.441 101.293C355.871 100.301 355.586 99.0508 355.586 97.543C355.586 96.0117 355.844 94.7383 356.359 93.7227C356.883 92.6992 357.609 91.9336 358.539 91.4258C359.469 90.9102 360.551 90.6523 361.785 90.6523ZM361.809 93.1953C361.113 93.1953 360.535 93.418 360.074 93.8633C359.621 94.3086 359.359 95.0078 359.289 95.9609H364.305C364.297 95.4297 364.199 94.957 364.012 94.543C363.832 94.1289 363.559 93.8008 363.191 93.5586C362.832 93.3164 362.371 93.1953 361.809 93.1953ZM382.316 101.387C382.707 101.387 383.086 101.348 383.453 101.27C383.828 101.191 384.199 101.094 384.566 100.977V103.637C384.184 103.809 383.707 103.949 383.137 104.059C382.574 104.176 381.957 104.234 381.285 104.234C380.504 104.234 379.801 104.109 379.176 103.859C378.559 103.602 378.07 103.16 377.711 102.535C377.359 101.902 377.184 101.023 377.184 99.8984V93.582H375.473V92.0703L377.441 90.875L378.473 88.1094H380.758V90.8984H384.426V93.582H380.758V99.8984C380.758 100.398 380.898 100.773 381.18 101.023C381.469 101.266 381.848 101.387 382.316 101.387ZM399.133 97.4258C399.133 98.5195 398.984 99.4883 398.688 100.332C398.398 101.176 397.973 101.891 397.41 102.477C396.855 103.055 396.184 103.492 395.395 103.789C394.613 104.086 393.73 104.234 392.746 104.234C391.824 104.234 390.977 104.086 390.203 103.789C389.438 103.492 388.77 103.055 388.199 102.477C387.637 101.891 387.199 101.176 386.887 100.332C386.582 99.4883 386.43 98.5195 386.43 97.4258C386.43 95.9727 386.688 94.7422 387.203 93.7344C387.719 92.7266 388.453 91.9609 389.406 91.4375C390.359 90.9141 391.496 90.6523 392.816 90.6523C394.043 90.6523 395.129 90.9141 396.074 91.4375C397.027 91.9609 397.773 92.7266 398.312 93.7344C398.859 94.7422 399.133 95.9727 399.133 97.4258ZM390.074 97.4258C390.074 98.2852 390.168 99.0078 390.355 99.5938C390.543 100.18 390.836 100.621 391.234 100.918C391.633 101.215 392.152 101.363 392.793 101.363C393.426 101.363 393.938 101.215 394.328 100.918C394.727 100.621 395.016 100.18 395.195 99.5938C395.383 99.0078 395.477 98.2852 395.477 97.4258C395.477 96.5586 395.383 95.8398 395.195 95.2695C395.016 94.6914 394.727 94.2578 394.328 93.9688C393.93 93.6797 393.41 93.5352 392.77 93.5352C391.824 93.5352 391.137 93.8594 390.707 94.5078C390.285 95.1562 390.074 96.1289 390.074 97.4258Z" fill="#F1F1F1"/>
</svg>
